# Blender 3.6.0
# www.blender.org
mtllib float_L_arm.mtl
o 立方体.002
v 2.350555 -1.502269 -0.209828
v 2.575930 -0.456325 -0.261201
v 6.419731 -3.170861 0.028899
v 6.610673 -2.619128 -0.007829
v 2.356204 -1.435510 0.822408
v 2.581027 -0.396077 0.670358
v 6.422789 -3.134718 0.587741
v 6.613730 -2.582986 0.551013
v 3.544457 -1.823300 -0.143265
v 3.712449 -1.212416 -0.203052
v 3.550906 -1.757172 0.729909
v 3.718894 -1.146279 0.671134
v 3.143789 -1.667086 -0.128180
v 2.304073 -1.187206 -0.388563
v 4.551051 -1.674088 -0.073627
v 6.608894 -2.965521 -0.031161
v 6.495370 -3.259798 0.313207
v 6.725957 -2.629418 0.271176
v 6.612432 -2.923695 0.615543
v 4.361993 -2.191821 0.620343
v 3.315372 -0.900781 0.688295
v 2.311268 -1.102159 0.926452
v 2.209544 -1.587693 0.298132
v 2.481628 -0.292972 0.212909
v 4.321058 -2.200847 0.069623
v 3.310243 -0.956760 -0.108536
v 3.148582 -1.610432 0.747807
v 4.552522 -1.628403 0.575522
v 3.793066 -0.998804 0.228166
v 3.499948 -1.995088 0.314093
v 3.618847 -1.529236 0.904807
v 3.610269 -1.620741 -0.363662
v 4.461249 -1.984498 -0.184785
v 6.615872 -3.051123 0.295634
v 3.221616 -1.275815 0.885519
v 2.139678 -1.065831 0.266200
v 3.102744 -1.811001 0.321237
v 3.345972 -0.752804 0.238765
v 4.604389 -1.553150 0.258353
v 4.335230 -2.321251 0.321271
v 4.417387 -1.897046 0.780896
v 3.215009 -1.353913 -0.322047
v 4.119571 -1.375493 -0.184010
v 3.930759 -2.005686 0.718096
v 3.924473 -2.069878 -0.124907
v 4.125853 -1.311292 0.660009
v 4.007204 -1.828608 -0.334100
v 4.199361 -1.264889 0.233837
v 3.888151 -2.208403 0.314907
v 4.041139 -1.601992 0.881192
v 2.824314 -1.576128 -0.215242
v 3.065811 -0.713955 0.700351
v 3.007008 -0.769818 -0.352937
v 2.829898 -1.510125 0.805309
v 2.838592 -1.207674 0.934550
v 2.730136 -1.701053 0.306151
v 2.988265 -0.530672 0.216702
v 2.831326 -1.293553 -0.393321
v 2.595707 -1.502633 -0.193335
v 2.804518 -0.542394 0.752122
v 2.798712 -0.611031 -0.309150
v 2.594719 -1.472188 0.825574
v 2.569753 -1.164515 0.942223
v 2.475833 -1.582006 0.300994
v 2.735966 -0.400540 0.210539
v 2.562402 -1.251404 -0.401267
v 5.576663 -2.163856 -0.079537
v 5.391866 -2.676716 0.659634
v 5.367354 -2.703599 0.020190
v 5.582144 -2.114771 0.613986
v 5.532652 -2.484838 -0.151828
v 5.665827 -2.062769 0.261395
v 5.409410 -2.829116 0.319466
v 5.516726 -2.407236 0.761600
v 4.839262 -2.477111 -0.000488
v 5.069257 -1.868536 0.665872
v 4.994492 -2.239619 -0.243977
v 5.138043 -1.767444 0.253995
v 4.866237 -2.613150 0.322709
v 4.969619 -2.149712 0.867256
v 5.062092 -1.919813 -0.139575
v 4.874912 -2.458513 0.717575
v 6.097951 -2.369174 -0.034582
v 5.904460 -2.919976 0.615171
v 5.891380 -2.949523 0.030491
v 6.101292 -2.329691 0.575917
v 6.071623 -2.721654 -0.081267
v 6.198784 -2.331006 0.267676
v 5.951242 -3.049486 0.315497
v 6.064116 -2.666610 0.678147
vn 0.0530 -0.7749 -0.6298
vn 0.3712 0.2160 -0.9031
vn 0.1223 0.0661 -0.9903
vn -0.0883 -0.2038 -0.9750
vn 0.7930 -0.4886 -0.3638
vn 0.9626 -0.2564 -0.0877
vn 0.9634 -0.2452 0.1080
vn 0.8048 -0.4303 0.4088
vn -0.1710 -0.5672 0.8056
vn 0.2495 0.4561 0.8543
vn 0.0111 0.2884 0.9575
vn -0.0675 -0.3585 0.9311
vn -0.9487 -0.1088 0.2970
vn -0.8709 0.4233 0.2496
vn -0.8791 0.3777 -0.2907
vn -0.9469 -0.1443 -0.2871
vn -0.3551 -0.8804 -0.3144
vn -0.3577 -0.7910 0.4964
vn 0.0176 -0.9615 0.2742
vn 0.0091 -0.9877 -0.1564
vn 0.4981 0.7943 0.3478
vn 0.4105 0.7672 -0.4928
vn 0.3769 0.8963 -0.2338
vn 0.4991 0.8517 0.1599
vn 0.3642 0.8886 0.2789
vn 0.3436 0.8633 -0.3697
vn 0.4913 0.7404 -0.4586
vn 0.3745 0.9126 0.1640
vn -0.4766 -0.8032 -0.3575
vn -0.4549 -0.8258 0.3334
vn -0.4329 -0.7862 0.4410
vn -0.4987 -0.7944 -0.3469
vn -0.3366 -0.3251 0.8837
vn 0.1219 0.5490 0.8269
vn 0.1438 0.5724 0.8073
vn -0.1836 -0.3247 0.9278
vn 0.0759 -0.5373 -0.8400
vn 0.1847 0.0138 -0.9827
vn 0.1280 0.3351 -0.9334
vn -0.2843 -0.6621 -0.6934
vn -0.0068 -0.4773 0.8787
vn 0.4925 0.3585 0.7930
vn -0.1584 -0.9379 -0.3085
vn -0.2293 -0.8856 0.4038
vn 0.6079 0.7444 0.2760
vn 0.5550 0.7490 -0.3620
vn 0.2069 0.2610 -0.9429
vn -0.3227 -0.5545 -0.7671
vn 0.0394 0.0637 -0.9972
vn -0.2437 -0.5127 -0.8232
vn 0.5825 0.7594 0.2897
vn 0.4841 0.7319 -0.4796
vn -0.1975 -0.9446 -0.2620
vn -0.2712 -0.8595 0.4333
vn 0.0438 -0.3884 0.9205
vn 0.1883 0.4198 0.8879
vn 0.0579 -0.4861 -0.8720
vn -0.0122 0.1468 -0.9891
vn 0.5654 0.7973 0.2115
vn 0.4443 0.8477 -0.2897
vn -0.3180 -0.9074 -0.2749
vn -0.3959 -0.8285 0.3960
vn 0.0158 -0.3933 0.9193
vn 0.0892 0.3931 0.9152
vn 0.2621 0.2536 0.9311
vn -0.0234 -0.2272 0.9736
vn -0.3544 -0.8772 0.3238
vn -0.3995 -0.8641 -0.3063
vn 0.4371 0.8626 -0.2547
vn 0.3868 0.8946 0.2237
vn -0.1882 -0.5152 -0.8361
vn 0.2455 0.1808 -0.9524
vn 0.0391 0.3026 -0.9523
vn -0.3835 -0.5269 -0.7585
vn 0.3384 0.3626 0.8684
vn -0.0375 -0.3384 0.9403
vn -0.3414 -0.8642 0.3696
vn -0.3601 -0.8702 -0.3362
vn 0.4525 0.7987 -0.3966
vn 0.4382 0.8533 0.2826
vn 0.4443 0.8854 0.1367
vn 0.4863 0.8572 -0.1693
vn -0.3761 -0.8962 -0.2353
vn -0.3412 -0.8862 0.3135
vn -0.0012 -0.1296 0.9916
vn 0.1953 0.1818 0.9638
vn -0.1426 -0.3427 -0.9286
vn 0.1789 0.1160 -0.9770
vn 0.0210 -0.6590 -0.7518
vn 0.3743 0.2066 -0.9040
vn 0.1111 0.1223 -0.9863
vn -0.0876 -0.3820 -0.9200
vn 0.6918 -0.6948 -0.1968
vn 0.9243 0.0209 -0.3811
vn 0.9299 0.0650 0.3621
vn 0.6978 -0.6629 0.2715
vn -0.2495 -0.3215 0.9135
vn 0.2760 0.3924 0.8774
vn -0.0949 0.3713 0.9237
vn -0.1326 -0.3116 0.9409
vn -0.9506 -0.2018 0.2359
vn -0.8705 0.4045 0.2803
vn -0.8794 0.3683 -0.3018
vn -0.9492 -0.2491 -0.1922
vn -0.3982 -0.8453 -0.3563
vn -0.2919 -0.8531 0.4325
vn -0.1508 -0.9602 0.2352
vn 0.0228 -0.9869 -0.1596
vn 0.4646 0.8312 0.3053
vn 0.3940 0.7922 -0.4661
vn 0.5095 0.8172 -0.2695
vn 0.3876 0.9138 0.1217
vn 0.3606 0.8926 0.2707
vn 0.3558 0.8464 -0.3963
vn 0.3665 0.8797 -0.3029
vn 0.5104 0.7867 0.3474
vn -0.4570 -0.8328 -0.3124
vn -0.4822 -0.7874 0.3839
vn -0.4694 -0.7404 0.4811
vn -0.4587 -0.8360 -0.3012
vn -0.3197 -0.4062 0.8560
vn 0.1194 0.5644 0.8168
vn 0.2131 0.4677 0.8578
vn -0.0581 -0.5968 0.8003
vn 0.0727 -0.5330 -0.8430
vn 0.6884 0.2084 -0.6947
vn 0.0820 0.4566 -0.8859
vn -0.3738 -0.4252 -0.8243
vn -0.0385 -0.3653 0.9301
vn 0.4774 0.4397 0.7607
vn -0.2176 -0.8852 -0.4113
vn -0.2638 -0.8503 0.4554
vn 0.5624 0.8059 0.1848
vn 0.5934 0.7429 -0.3099
vn 0.1728 0.3228 -0.9306
vn -0.2933 -0.6587 -0.6929
vn -0.0771 0.1698 -0.9825
vn -0.0780 -0.6418 -0.7629
vn 0.5023 0.8322 0.2348
vn 0.6550 0.7042 -0.2741
vn -0.2567 -0.9134 -0.3159
vn -0.2129 -0.8976 0.3859
vn 0.0475 -0.3937 0.9180
vn 0.2735 0.3066 0.9117
vn -0.1957 -0.6405 -0.7426
vn -0.0732 0.1976 -0.9776
vn 0.4481 0.8771 0.1730
vn 0.5335 0.7860 -0.3124
vn -0.4076 -0.8810 -0.2403
vn -0.1354 -0.9632 0.2323
vn -0.0306 -0.3565 0.9338
vn 0.2998 0.1735 0.9381
vn 0.2296 0.3971 0.8886
vn -0.0206 -0.3454 0.9382
vn -0.3736 -0.8536 0.3631
vn -0.3674 -0.8991 -0.2382
vn 0.3692 0.8603 -0.3516
vn 0.4441 0.8855 0.1367
vn -0.1690 -0.6495 -0.7413
vn 0.2315 0.2573 -0.9382
vn 0.0358 0.3277 -0.9441
vn -0.3659 -0.5997 -0.7116
vn 0.3123 0.4775 0.8212
vn -0.0276 -0.4291 0.9028
vn -0.3306 -0.8763 0.3504
vn -0.3517 -0.8799 -0.3196
vn 0.4338 0.8266 -0.3585
vn 0.4718 0.8492 0.2372
vn 0.4917 0.8692 0.0530
vn 0.4345 0.8641 -0.2541
vn -0.3545 -0.9151 -0.1920
vn -0.3471 -0.8794 0.3259
vn -0.0018 -0.2402 0.9707
vn 0.1783 0.2676 0.9469
vn -0.1330 -0.5486 -0.8254
vn 0.1606 0.1959 -0.9674
vt 0.375000 0.114453
vt 0.500000 0.163637
vt 0.375000 0.161169
vt 0.500000 0.123316
vt 0.625000 0.161169
vt 0.500000 0.235944
vt 0.625000 0.250000
vt 0.500000 0.260047
vt 0.375000 0.227792
vt 0.375000 0.250000
vt 0.500000 0.375000
vt 0.375000 0.375000
vt 0.625000 0.375000
vt 0.500000 0.489953
vt 0.375000 0.500000
vt 0.500000 0.660108
vt 0.375000 0.712254
vt 0.375000 0.660108
vt 0.625000 0.660108
vt 0.500000 0.714104
vt 0.625000 0.740563
vt 0.500000 0.774675
vt 0.500000 0.759532
vt 0.375000 0.750000
vt 0.375000 0.740563
vt 0.500000 0.877468
vt 0.375000 0.875000
vt 0.625000 0.750000
vt 0.625000 1.000000
vt 0.500000 1.000000
vt 0.375000 1.000000
vt 0.125000 0.677661
vt 0.250000 0.712002
vt 0.125000 0.713831
vt 0.250000 0.661571
vt 0.250000 0.740501
vt 0.250000 0.750000
vt 0.125000 0.750000
vt 0.125000 0.740958
vt 0.750000 0.661570
vt 0.625000 0.712253
vt 0.875000 0.713831
vt 0.750000 0.712002
vt 0.750000 0.740501
vt 0.875000 0.750000
vt 0.750000 0.750000
vt 0.750000 0.565252
vt 0.625000 0.586385
vt 0.625000 0.564789
vt 0.875000 0.588831
vt 0.750000 0.587002
vt 0.750000 0.626218
vt 0.875000 0.677661
vt 0.625000 0.625156
vt 0.125000 0.566623
vt 0.250000 0.587002
vt 0.125000 0.588831
vt 0.375000 0.564789
vt 0.250000 0.565252
vt 0.375000 0.625156
vt 0.250000 0.626218
vt 0.125000 0.635547
vt 0.500000 0.561712
vt 0.375000 0.586385
vt 0.500000 0.585632
vt 0.500000 0.624799
vt 0.375000 0.018085
vt 0.500000 0.037632
vt 0.375000 0.036169
vt 0.625000 0.018085
vt 0.500000 0.018816
vt 0.625000 0.072338
vt 0.500000 0.086967
vt 0.375000 0.072338
vt 0.625000 0.114453
vt 0.500000 0.009408
vt 0.375000 0.009042
vt 0.625000 0.731127
vt 0.750000 0.731001
vt 0.250000 0.731001
vt 0.125000 0.731915
vt 0.375000 0.731127
vt 0.500000 0.744390
vt 0.500000 0.000000
vt 0.375000 0.000000
vt 0.625000 0.009042
vt 0.875000 0.740958
vt 0.625000 0.521596
vt 0.500000 0.537792
vt 0.500000 0.513873
vt 0.375000 0.543193
vt 0.375000 0.521596
vt 0.250000 0.543501
vt 0.250000 0.521751
vt 0.125000 0.522208
vt 0.125000 0.544415
vt 0.875000 0.522208
vt 0.750000 0.543501
vt 0.750000 0.521751
vt 0.625000 0.543193
vt 0.375000 0.183377
vt 0.500000 0.211842
vt 0.375000 0.205585
vt 0.500000 0.187739
vt 0.625000 0.205585
vt 0.625000 0.183377
vt 0.875000 0.566623
vt 0.625000 0.500000
vt 0.875000 0.500000
vt 0.750000 0.500000
vt 0.125000 0.500000
vt 0.250000 0.500000
vt 0.625000 0.227792
vt 0.625000 0.875000
vt 0.875000 0.635547
vt 0.625000 0.036169
vt 0.875000 0.731915
vt 0.625000 0.000000
vt 0.875000 0.544415
s 0
f 45/1/1 33/2/1 25/3/1
f 47/4/2 15/5/2 33/2/2
f 87/6/3 4/7/3 16/8/3
f 85/9/4 16/8/4 3/10/4
f 3/10/5 34/11/5 17/12/5
f 16/8/6 18/13/6 34/11/6
f 18/13/7 19/14/7 34/11/7
f 34/11/8 7/15/8 17/12/8
f 31/16/9 27/17/9 11/18/9
f 12/19/10 35/20/10 31/16/10
f 60/21/11 22/22/11 63/23/11
f 63/23/12 5/24/12 62/25/12
f 5/24/13 36/26/13 23/27/13
f 6/28/14 36/26/14 22/22/14
f 36/26/15 2/29/15 14/30/15
f 36/26/16 1/31/16 23/27/16
f 9/32/17 37/33/17 13/34/17
f 11/18/18 37/33/18 30/35/18
f 64/36/19 5/24/19 23/37/19
f 64/36/20 1/38/20 59/39/20
f 29/40/21 21/41/21 12/19/21
f 29/40/22 26/42/22 38/43/22
f 65/44/23 2/45/23 24/46/23
f 65/44/24 6/28/24 60/21/24
f 78/47/25 28/48/25 76/49/25
f 78/47/26 15/50/26 39/51/26
f 48/52/27 10/53/27 29/40/27
f 48/52/28 12/19/28 46/54/28
f 75/55/29 40/56/29 25/57/29
f 82/58/30 40/56/30 79/59/30
f 44/60/31 30/35/31 49/61/31
f 45/62/32 30/35/32 9/32/32
f 80/63/33 20/64/33 82/58/33
f 76/49/34 41/65/34 80/63/34
f 46/54/35 31/16/35 50/66/35
f 50/66/36 11/18/36 44/60/36
f 51/67/37 42/68/37 13/69/37
f 53/70/38 42/68/38 58/71/38
f 42/68/39 10/72/39 32/73/39
f 13/69/40 32/73/40 9/74/40
f 41/65/41 44/60/41 20/64/41
f 28/48/42 50/66/42 41/65/42
f 25/57/43 49/61/43 45/62/43
f 20/64/44 49/61/44 40/56/44
f 39/51/45 46/54/45 28/48/45
f 15/50/46 48/52/46 39/51/46
f 32/73/47 43/75/47 47/4/47
f 9/74/48 47/4/48 45/1/48
f 66/76/49 53/70/49 58/71/49
f 59/77/50 58/71/50 51/67/50
f 38/43/51 52/78/51 21/41/51
f 26/42/52 57/79/52 38/43/52
f 13/34/53 56/80/53 51/81/53
f 27/17/54 56/80/54 37/33/54
f 35/20/55 54/82/55 27/17/55
f 21/41/56 55/83/56 35/20/56
f 14/84/57 59/77/57 1/85/57
f 14/84/58 61/86/58 66/76/58
f 57/79/59 60/21/59 52/78/59
f 57/79/60 61/87/60 65/44/60
f 56/80/61 59/39/61 51/81/61
f 54/82/62 64/36/62 56/80/62
f 55/83/63 62/25/63 54/82/63
f 52/78/64 63/23/64 55/83/64
f 86/88/65 74/89/65 90/90/65
f 90/90/66 68/91/66 84/92/66
f 84/92/67 73/93/67 89/94/67
f 85/95/68 73/93/68 69/96/68
f 83/97/69 72/98/69 88/99/69
f 86/88/70 72/98/70 70/100/70
f 75/101/71 71/102/71 69/103/71
f 77/104/72 67/105/72 71/102/72
f 33/2/73 81/106/73 77/104/73
f 25/3/74 77/104/74 75/101/74
f 70/100/75 80/63/75 74/89/75
f 74/89/76 82/58/76 68/91/76
f 68/91/77 79/59/77 73/93/77
f 69/96/78 79/59/78 75/55/78
f 72/98/79 81/107/79 78/47/79
f 70/100/80 78/47/80 76/49/80
f 8/108/81 88/99/81 86/88/81
f 4/109/82 88/99/82 18/110/82
f 3/111/83 89/94/83 85/95/83
f 7/15/84 89/94/84 17/112/84
f 19/14/85 84/92/85 7/15/85
f 8/108/86 90/90/86 19/14/86
f 69/103/87 87/6/87 85/9/87
f 71/102/88 83/113/88 87/6/88
f 45/1/89 47/4/89 33/2/89
f 47/4/90 43/75/90 15/5/90
f 87/6/91 83/113/91 4/7/91
f 85/9/92 87/6/92 16/8/92
f 3/10/93 16/8/93 34/11/93
f 16/8/94 4/7/94 18/13/94
f 18/13/95 8/108/95 19/14/95
f 34/11/96 19/14/96 7/15/96
f 31/16/97 35/20/97 27/17/97
f 12/19/98 21/41/98 35/20/98
f 60/21/99 6/28/99 22/22/99
f 63/23/100 22/22/100 5/24/100
f 5/24/101 22/22/101 36/26/101
f 6/28/102 24/114/102 36/26/102
f 36/26/103 24/114/103 2/29/103
f 36/26/104 14/30/104 1/31/104
f 9/32/105 30/35/105 37/33/105
f 11/18/106 27/17/106 37/33/106
f 64/36/107 62/25/107 5/24/107
f 64/36/108 23/37/108 1/38/108
f 29/40/109 38/43/109 21/41/109
f 29/40/110 10/53/110 26/42/110
f 65/44/111 61/87/111 2/45/111
f 65/44/112 24/46/112 6/28/112
f 78/47/113 39/51/113 28/48/113
f 78/47/114 81/107/114 15/50/114
f 48/52/115 43/115/115 10/53/115
f 48/52/116 29/40/116 12/19/116
f 75/55/117 79/59/117 40/56/117
f 82/58/118 20/64/118 40/56/118
f 44/60/119 11/18/119 30/35/119
f 45/62/120 49/61/120 30/35/120
f 80/63/121 41/65/121 20/64/121
f 76/49/122 28/48/122 41/65/122
f 46/54/123 12/19/123 31/16/123
f 50/66/124 31/16/124 11/18/124
f 51/67/125 58/71/125 42/68/125
f 53/70/126 26/116/126 42/68/126
f 42/68/127 26/116/127 10/72/127
f 13/69/128 42/68/128 32/73/128
f 41/65/129 50/66/129 44/60/129
f 28/48/130 46/54/130 50/66/130
f 25/57/131 40/56/131 49/61/131
f 20/64/132 44/60/132 49/61/132
f 39/51/133 48/52/133 46/54/133
f 15/50/134 43/115/134 48/52/134
f 32/73/135 10/72/135 43/75/135
f 9/74/136 32/73/136 47/4/136
f 66/76/137 61/86/137 53/70/137
f 59/77/138 66/76/138 58/71/138
f 38/43/139 57/79/139 52/78/139
f 26/42/140 53/117/140 57/79/140
f 13/34/141 37/33/141 56/80/141
f 27/17/142 54/82/142 56/80/142
f 35/20/143 55/83/143 54/82/143
f 21/41/144 52/78/144 55/83/144
f 14/84/145 66/76/145 59/77/145
f 14/84/146 2/118/146 61/86/146
f 57/79/147 65/44/147 60/21/147
f 57/79/148 53/117/148 61/87/148
f 56/80/149 64/36/149 59/39/149
f 54/82/150 62/25/150 64/36/150
f 55/83/151 63/23/151 62/25/151
f 52/78/152 60/21/152 63/23/152
f 86/88/153 70/100/153 74/89/153
f 90/90/154 74/89/154 68/91/154
f 84/92/155 68/91/155 73/93/155
f 85/95/156 89/94/156 73/93/156
f 83/97/157 67/119/157 72/98/157
f 86/88/158 88/99/158 72/98/158
f 75/101/159 77/104/159 71/102/159
f 77/104/160 81/106/160 67/105/160
f 33/2/161 15/5/161 81/106/161
f 25/3/162 33/2/162 77/104/162
f 70/100/163 76/49/163 80/63/163
f 74/89/164 80/63/164 82/58/164
f 68/91/165 82/58/165 79/59/165
f 69/96/166 73/93/166 79/59/166
f 72/98/167 67/119/167 81/107/167
f 70/100/168 72/98/168 78/47/168
f 8/108/169 18/110/169 88/99/169
f 4/109/170 83/97/170 88/99/170
f 3/111/171 17/112/171 89/94/171
f 7/15/172 84/92/172 89/94/172
f 19/14/173 90/90/173 84/92/173
f 8/108/174 86/88/174 90/90/174
f 69/103/175 71/102/175 87/6/175
f 71/102/176 67/105/176 83/113/176
o 立方体.003
v 6.935097 -3.342557 -0.145414
v 6.935097 -2.641168 -0.145414
v 6.930254 -3.342557 0.708844
v 6.930254 -2.641168 0.708844
v 6.309339 -3.342557 -0.148962
v 6.309339 -2.641168 -0.148962
v 6.304495 -3.342557 0.705296
v 6.304495 -2.641168 0.705296
v 7.001239 -3.419407 0.282104
v 7.004191 -2.991863 -0.238624
v 7.001239 -2.564318 0.282104
v 6.998286 -2.991863 0.802832
v 6.616844 -3.419407 0.800669
v 6.616844 -2.564318 0.800669
v 6.235402 -2.991863 0.798507
v 6.238354 -3.419407 0.277779
v 6.238354 -2.564318 0.277779
v 6.241306 -2.991863 -0.242950
v 6.622749 -3.419407 -0.240787
v 6.622749 -2.564318 -0.240787
v 7.145124 -2.991863 0.282920
v 6.615730 -2.991863 0.997096
v 6.094468 -2.991863 0.276963
v 6.623862 -2.991863 -0.437213
v 6.619796 -3.580684 0.279941
v 6.619796 -2.403042 0.279941
vn 0.9288 -0.3122 -0.1998
vn 0.9344 0.2512 -0.2525
vn 0.9315 0.2512 0.2631
vn 0.9264 -0.3122 0.2103
vn 0.3458 -0.3910 0.8530
vn 0.4304 0.3106 0.8475
vn -0.4400 0.3106 0.8426
vn -0.3554 -0.3910 0.8490
vn -0.9288 -0.3122 0.1998
vn -0.9344 0.2512 0.2525
vn -0.9315 0.2512 -0.2631
vn -0.9264 -0.3122 -0.2103
vn -0.3458 -0.3910 -0.8530
vn -0.4304 0.3106 -0.8475
vn 0.4400 0.3106 -0.8426
vn 0.3554 -0.3910 -0.8490
vn 0.3784 -0.8980 0.2247
vn -0.3091 -0.9090 0.2798
vn -0.3059 -0.9090 -0.2833
vn 0.3809 -0.8980 -0.2203
vn -0.3809 0.8980 0.2203
vn 0.3059 0.9090 0.2833
vn 0.3091 0.9090 -0.2798
vn -0.3784 0.8980 -0.2247
vn 0.9344 -0.2512 -0.2525
vn 0.9288 0.3122 -0.1998
vn 0.9264 0.3122 0.2103
vn 0.9315 -0.2512 0.2631
vn 0.4304 -0.3106 0.8475
vn 0.3458 0.3910 0.8530
vn -0.3554 0.3910 0.8490
vn -0.4400 -0.3106 0.8426
vn -0.9344 -0.2512 0.2525
vn -0.9288 0.3122 0.1998
vn -0.9264 0.3122 -0.2103
vn -0.9315 -0.2512 -0.2631
vn -0.4304 -0.3106 -0.8475
vn -0.3458 0.3910 -0.8530
vn 0.3554 0.3910 -0.8490
vn 0.4400 -0.3106 -0.8426
vn 0.3059 -0.9090 0.2833
vn -0.3809 -0.8980 0.2203
vn -0.3784 -0.8980 -0.2247
vn 0.3091 -0.9090 -0.2798
vn -0.3091 0.9090 0.2798
vn 0.3784 0.8980 0.2247
vn 0.3809 0.8980 -0.2203
vn -0.3059 0.9090 -0.2833
vt 0.375000 0.000000
vt 0.500000 0.125000
vt 0.375000 0.125000
vt 0.625000 0.000000
vt 0.500000 0.000000
vt 0.625000 0.250000
vt 0.500000 0.250000
vt 0.375000 0.250000
vt 0.500000 0.375000
vt 0.375000 0.375000
vt 0.625000 0.500000
vt 0.500000 0.500000
vt 0.375000 0.500000
vt 0.500000 0.625000
vt 0.375000 0.625000
vt 0.625000 0.750000
vt 0.500000 0.750000
vt 0.375000 0.750000
vt 0.500000 0.875000
vt 0.375000 0.875000
vt 0.625000 1.000000
vt 0.500000 1.000000
vt 0.375000 1.000000
vt 0.125000 0.500000
vt 0.250000 0.625000
vt 0.125000 0.625000
vt 0.250000 0.500000
vt 0.250000 0.750000
vt 0.125000 0.750000
vt 0.750000 0.625000
vt 0.625000 0.625000
vt 0.875000 0.500000
vt 0.750000 0.500000
vt 0.875000 0.750000
vt 0.750000 0.750000
vt 0.625000 0.125000
vt 0.625000 0.375000
vt 0.625000 0.875000
vt 0.875000 0.625000
s 0
f 91/120/177 111/121/177 99/122/177
f 92/123/178 111/121/178 100/124/178
f 111/121/179 94/125/179 102/126/179
f 111/121/180 93/127/180 99/122/180
f 93/127/181 112/128/181 103/129/181
f 94/125/182 112/128/182 102/126/182
f 112/128/183 98/130/183 105/131/183
f 112/128/184 97/132/184 103/129/184
f 97/132/185 113/133/185 106/134/185
f 98/130/186 113/133/186 105/131/186
f 113/133/187 96/135/187 108/136/187
f 113/133/188 95/137/188 106/134/188
f 95/137/189 114/138/189 109/139/189
f 96/135/190 114/138/190 108/136/190
f 114/138/191 92/140/191 100/141/191
f 114/138/192 91/142/192 109/139/192
f 93/143/193 115/144/193 99/145/193
f 97/132/194 115/144/194 103/146/194
f 115/144/195 95/137/195 109/147/195
f 115/144/196 91/148/196 99/145/196
f 98/130/197 116/149/197 107/150/197
f 94/151/198 116/149/198 104/152/198
f 116/149/199 92/153/199 110/154/199
f 116/149/200 96/135/200 107/150/200
f 91/120/201 100/124/201 111/121/201
f 92/123/202 101/155/202 111/121/202
f 111/121/203 101/155/203 94/125/203
f 111/121/204 102/126/204 93/127/204
f 93/127/205 102/126/205 112/128/205
f 94/125/206 104/156/206 112/128/206
f 112/128/207 104/156/207 98/130/207
f 112/128/208 105/131/208 97/132/208
f 97/132/209 105/131/209 113/133/209
f 98/130/210 107/150/210 113/133/210
f 113/133/211 107/150/211 96/135/211
f 113/133/212 108/136/212 95/137/212
f 95/137/213 108/136/213 114/138/213
f 96/135/214 110/157/214 114/138/214
f 114/138/215 110/157/215 92/140/215
f 114/138/216 100/141/216 91/142/216
f 93/143/217 103/146/217 115/144/217
f 97/132/218 106/134/218 115/144/218
f 115/144/219 106/134/219 95/137/219
f 115/144/220 109/147/220 91/148/220
f 98/130/221 104/152/221 116/149/221
f 94/151/222 101/158/222 116/149/222
f 116/149/223 101/158/223 92/153/223
f 116/149/224 110/154/224 96/135/224
