# Blender 3.6.0
# www.blender.org
mtllib float_Body.mtl
o 立方体
v 0.640548 1.006027 1.305948
v 1.974581 6.368695 1.365835
v -1.696855 1.035163 1.261214
v -2.511855 6.165375 1.088662
v 1.096069 0.824416 -1.165655
v 2.178939 6.171765 -1.764218
v -2.061870 0.863780 -1.226093
v -2.149661 5.880024 -1.840806
v -0.535909 1.034026 1.697573
v -0.466877 6.066796 1.368482
v -0.477725 0.825553 -1.478395
v -0.409793 5.862265 -1.747427
v 1.410582 2.491258 1.387270
v -2.285303 2.558772 1.434256
v -2.400968 2.347319 -1.613520
v 1.486600 2.298861 -1.539118
v -0.448772 2.290959 -2.036771
v -0.515368 2.531563 1.599650
v 1.690366 4.349992 1.644292
v -2.675200 4.404409 1.560742
v -2.679506 4.180620 -1.862558
v 2.464124 4.327857 -2.114928
v -0.423762 4.131211 -2.144994
v -0.488385 4.362755 1.382450
v -2.085787 0.949471 0.079370
v -2.624715 6.085324 -0.385568
v 1.072153 0.910107 0.139808
v 2.276089 6.519073 -0.631440
v -0.437785 5.962560 -0.219502
v -0.506817 0.929789 0.109589
v 1.577007 2.401608 0.051154
v -2.549559 2.453045 -0.027823
v 2.811485 4.224096 -0.045860
v -3.216954 4.299241 -0.161235
v 0.256164 1.014913 1.571422
v 0.976041 5.923098 -2.263334
v 0.838312 6.351461 1.764928
v 0.309172 0.824984 -1.322025
v 0.447607 2.511411 1.493460
v 0.523322 2.280112 -1.958338
v 0.940940 4.217041 1.528745
v 0.949039 4.204626 -2.620315
v 1.071403 6.281941 -0.271789
v 0.282668 0.919948 0.124698
v 1.923276 5.245351 1.410046
v -2.593527 5.284892 1.324702
v -2.414584 5.030322 -1.851682
v 2.414359 5.123428 -1.938126
v -0.414375 4.988131 -2.077334
v -0.477631 5.214776 1.375466
v 2.889803 5.182143 -0.166284
v -2.920835 5.192283 -0.273402
v 0.715898 5.254875 1.770746
v 0.964890 5.021115 -2.712223
v -2.097745 0.992317 0.732101
v 1.994080 6.562907 0.406409
v -0.521363 0.981908 0.903581
v 1.493795 2.446433 0.719212
v 2.642557 4.282163 0.806711
v -2.568285 6.125350 0.351547
v 1.060195 0.952953 0.792539
v -0.450057 6.180502 0.563647
v -2.623855 2.505908 0.765026
v -2.946077 4.351825 0.699753
v 0.269416 0.967430 0.848060
v 0.962488 6.517932 0.478919
v -2.757181 5.238587 0.525650
v 2.619816 5.211089 0.625963
v -2.273827 3.481591 1.435689
v -2.540237 3.263970 -1.738039
v 1.715928 3.313359 -1.723514
v -0.434163 3.206002 -2.204134
v -0.501877 3.447159 1.491050
v 1.550474 3.420625 1.515781
v -2.883257 3.376143 -0.094529
v 2.390945 3.310400 0.006411
v 0.736774 3.240241 -2.068273
v 0.694273 3.364226 1.511102
v -2.784966 3.428867 0.732390
v 2.383187 3.374778 0.989316
v -1.991079 1.796967 1.347735
v -2.231419 1.605549 -1.419806
v 1.291335 1.561638 -1.352386
v -0.460227 1.552027 -1.919502
v -0.525639 1.782795 1.648611
v 1.229409 1.743529 1.416270
v -2.317673 1.701258 0.025774
v 1.324580 1.655857 0.095481
v 0.418412 1.544793 -1.779768
v 0.351885 1.763162 1.532441
v -2.360800 1.749113 0.748564
v 1.276995 1.699693 0.755876
vn -0.0145 0.2602 0.9655
vn -0.9108 0.2619 -0.3190
vn 0.4090 0.4025 -0.8190
vn 0.7474 -0.0080 0.6643
vn -0.0137 -0.9978 0.0652
vn -0.0288 0.9798 0.1978
vn -0.0207 0.9984 -0.0526
vn -0.1110 0.0473 -0.9927
vn -0.3147 0.0118 0.9491
vn 0.1324 0.0629 0.9892
vn -0.2727 -0.1467 -0.9509
vn 0.9578 -0.2738 0.0872
vn 0.4275 -0.2705 -0.8626
vn -0.9542 -0.2970 -0.0373
vn -0.2001 0.0667 0.9775
vn -0.0085 0.1179 0.9930
vn -0.2139 0.0647 -0.9747
vn 0.5167 -0.1931 0.8341
vn 0.3176 -0.5228 -0.7911
vn -0.9229 -0.3459 -0.1690
vn -0.0287 0.1182 0.9926
vn -0.9779 -0.1662 0.1268
vn 0.8495 -0.4100 -0.3322
vn 0.9472 -0.3207 -0.0009
vn 0.0137 0.9978 -0.0652
vn -0.1315 0.9767 -0.1697
vn 0.9325 0.2523 -0.2586
vn -0.9539 0.2388 0.1815
vn -0.1068 0.9794 -0.1714
vn 0.1132 0.0621 -0.9916
vn -0.0042 -0.0195 0.9998
vn 0.1538 -0.1572 -0.9755
vn 0.1319 0.0347 0.9907
vn 0.2859 -0.0268 0.9579
vn -0.2228 0.9659 0.1318
vn -0.3887 0.4144 -0.8229
vn -0.3299 0.0779 -0.9408
vn -0.1046 -0.2473 0.9633
vn -0.9275 0.2518 0.2764
vn 0.9823 0.0970 -0.1601
vn -0.1238 -0.2507 0.9601
vn -0.1230 0.0510 -0.9911
vn 0.6613 0.0241 0.7498
vn 0.3226 -0.1121 -0.9399
vn -0.9141 0.2645 -0.3072
vn 0.0834 0.2508 0.9644
vn 0.9799 0.0610 0.1900
vn -0.9437 0.1644 0.2869
vn -0.2067 0.9244 -0.3206
vn -0.9714 0.1412 0.1908
vn 0.0224 -0.9976 0.0659
vn -0.0254 -0.9976 0.0650
vn -0.8037 -0.2907 0.5192
vn -0.7990 -0.1186 0.5896
vn 0.9625 -0.2700 0.0253
vn 0.0604 0.9964 -0.0587
vn -0.2211 0.9700 -0.1010
vn 0.8546 0.4403 0.2752
vn 0.7413 -0.6572 0.1364
vn -0.8794 -0.1374 0.4557
vn 0.1084 -0.0519 0.9928
vn 0.0771 -0.1806 -0.9805
vn 0.7449 -0.6671 0.0008
vn -0.9369 -0.3434 -0.0649
vn -0.0906 0.1186 0.9888
vn 0.3948 -0.1907 -0.8987
vn 0.6958 -0.7056 0.1340
vn -0.2135 -0.1725 -0.9616
vn 0.1113 0.1154 0.9871
vn 0.9472 -0.3183 0.0382
vn -0.7553 -0.2755 0.5946
vn 0.5676 -0.0297 0.8228
vn 0.1628 -0.5469 -0.8212
vn -0.9556 -0.2946 0.0018
vn -0.3510 0.0659 0.9340
vn 0.1865 -0.2874 -0.9395
vn 0.6075 -0.5681 0.5552
vn -0.1575 -0.2831 -0.9461
vn 0.1584 0.0623 0.9854
vn -0.1351 0.0098 0.9908
vn -0.8988 0.2845 -0.3335
vn 0.3329 0.2266 -0.9153
vn 0.8958 0.4318 0.1056
vn 0.0311 0.9909 0.1313
vn 0.0285 0.9897 0.1404
vn 0.0537 0.3523 -0.9343
vn -0.2981 0.0383 0.9538
vn 0.1103 0.0376 0.9932
vn -0.2107 -0.2918 -0.9330
vn 0.9641 -0.2284 0.1354
vn 0.3832 -0.3209 -0.8661
vn -0.9677 -0.2407 -0.0746
vn -0.0943 -0.1482 0.9845
vn -0.1009 0.0086 0.9949
vn -0.1261 -0.1523 -0.9803
vn 0.6585 -0.0370 0.7516
vn 0.3067 -0.5310 -0.7899
vn -0.9413 -0.1817 -0.2847
vn 0.0790 -0.1001 0.9918
vn -0.9031 -0.3046 0.3027
vn 0.7641 -0.6251 -0.1596
vn -0.9429 -0.3263 -0.0666
vn 0.9636 -0.2648 -0.0377
vn 0.0646 0.9908 -0.1187
vn -0.2612 0.9289 -0.2624
vn 0.9158 0.3552 -0.1874
vn -0.9457 0.3205 0.0550
vn -0.2088 0.9756 -0.0679
vn -0.2745 -0.4315 -0.8593
vn -0.1311 -0.1164 0.9845
vn 0.0752 -0.2454 -0.9665
vn 0.1098 0.0119 0.9939
vn 0.3310 0.0220 0.9434
vn -0.2414 0.9651 0.1016
vn -0.3417 0.3334 -0.8787
vn -0.4144 -0.0939 -0.9052
vn 0.2832 0.1731 0.9433
vn -0.9286 0.3294 0.1711
vn 0.9608 -0.1105 -0.2542
vn -0.1101 0.0794 -0.9907
vn 0.7428 0.1453 0.6535
vn 0.4473 0.2206 -0.8667
vn -0.9036 0.2858 -0.3192
vn -0.0237 0.0085 0.9997
vn 0.9455 -0.0366 0.3236
vn -0.2391 0.9345 -0.2638
vn -0.9736 0.2197 0.0626
vn -0.0117 -0.9956 0.0934
vn -0.0167 -0.9955 0.0933
vn -0.8183 -0.3663 0.4429
vn -0.8606 -0.4144 0.2961
vn 0.8936 -0.3996 0.2043
vn 0.9406 -0.3102 0.1380
vn 0.0018 0.9634 -0.2681
vn -0.0630 0.9494 -0.3076
vn 0.8577 0.4679 0.2133
vn 0.7136 -0.6986 0.0514
vn -0.8092 0.0092 0.5874
vn 0.0036 -0.1375 0.9905
vn 0.1181 -0.1388 -0.9832
vn 0.8977 -0.2667 -0.3507
vn -0.0313 -0.0012 0.9995
vn -0.9665 -0.1726 -0.1899
vn 0.3383 -0.2418 -0.9095
vn -0.2175 -0.1638 -0.9622
vn -0.0178 -0.0155 0.9997
vn -0.7810 -0.3596 0.5106
vn 0.1220 -0.2415 0.9627
vn 0.1303 -0.5169 -0.8461
vn 0.9663 -0.2573 -0.0054
vn -0.9442 -0.3275 -0.0347
vn -0.1993 -0.1863 0.9621
vn -0.9715 -0.2332 -0.0425
vn 0.3793 -0.5368 -0.7536
vn -0.2493 -0.4982 -0.8304
vt 0.582835 0.125000
vt 0.625000 0.250000
vt 0.582835 0.250000
vt 0.625000 0.375000
vt 0.582835 0.500000
vt 0.582835 0.375000
vt 0.625000 0.687500
vt 0.582835 0.750000
vt 0.582835 0.687500
vt 0.582835 0.937500
vt 0.625000 1.000000
vt 0.582835 1.000000
vt 0.250000 0.687500
vt 0.375000 0.750000
vt 0.250000 0.750000
vt 0.812500 0.687500
vt 0.875000 0.750000
vt 0.812500 0.750000
vt 0.875000 0.500000
vt 0.812500 0.625000
vt 0.812500 0.500000
vt 0.375000 0.500000
vt 0.250000 0.625000
vt 0.250000 0.500000
vt 0.625000 0.500000
vt 0.582835 0.625000
vt 0.582835 0.062500
vt 0.625000 0.125000
vt 0.412195 0.062500
vt 0.449389 0.125000
vt 0.412195 0.125000
vt 0.412195 0.500000
vt 0.449389 0.625000
vt 0.412195 0.625000
vt 0.449389 0.937500
vt 0.412195 1.000000
vt 0.412195 0.937500
vt 0.449389 0.687500
vt 0.412195 0.750000
vt 0.412195 0.687500
vt 0.449389 0.375000
vt 0.412195 0.375000
vt 0.412195 0.250000
vt 0.495029 0.062500
vt 0.540669 0.125000
vt 0.495029 0.125000
vt 0.495029 0.500000
vt 0.540669 0.625000
vt 0.495029 0.625000
vt 0.495029 0.937500
vt 0.540669 1.000000
vt 0.495029 1.000000
vt 0.540669 0.687500
vt 0.495029 0.750000
vt 0.495029 0.687500
vt 0.540669 0.375000
vt 0.495029 0.375000
vt 0.495029 0.250000
vt 0.540669 0.312500
vt 0.495029 0.312500
vt 0.540669 0.875000
vt 0.495029 0.875000
vt 0.412195 0.312500
vt 0.449389 0.875000
vt 0.412195 0.875000
vt 0.187500 0.500000
vt 0.187500 0.625000
vt 0.750000 0.625000
vt 0.625000 0.625000
vt 0.750000 0.687500
vt 0.625000 0.750000
vt 0.187500 0.750000
vt 0.187500 0.687500
vt 0.582835 0.875000
vt 0.625000 0.312500
vt 0.582835 0.312500
vt 0.495029 0.000000
vt 0.540669 0.062500
vt 0.412195 0.000000
vt 0.449389 0.062500
vt 0.582835 0.000000
vt 0.625000 0.062500
vt 0.875000 0.625000
vt 0.375000 0.687500
vt 0.540669 0.000000
vt 0.540669 0.750000
vt 0.540669 0.500000
vt 0.540669 0.937500
vt 0.540669 0.250000
vt 0.125000 0.687500
vt 0.125000 0.625000
vt 0.125000 0.750000
vt 0.125000 0.500000
vt 0.449389 0.312500
vt 0.750000 0.500000
vt 0.750000 0.750000
vt 0.625000 0.937500
vt 0.449389 0.250000
vt 0.449389 0.000000
vt 0.449389 0.750000
vt 0.449389 0.500000
vt 0.449389 1.000000
vt 0.375000 0.937500
vt 0.375000 0.875000
vt 0.375000 0.250000
vt 0.375000 0.312500
vt 0.375000 0.000000
vt 0.375000 0.062500
vt 0.375000 0.625000
vt 0.375000 0.375000
vt 0.375000 0.125000
vt 0.375000 1.000000
vt 0.875000 0.687500
vt 0.625000 0.875000
vt 0.625000 0.000000
s 0
f 50/1/1 4/2/1 46/3/1
f 26/4/2 47/5/2 52/6/2
f 36/7/3 48/8/3 54/9/3
f 68/10/4 2/11/4 45/12/4
f 44/13/5 5/14/5 27/15/5
f 66/16/6 2/17/6 56/18/6
f 4/19/7 62/20/7 60/21/7
f 7/22/5 30/23/5 25/24/5
f 8/25/8 49/26/8 47/5/8
f 53/27/9 10/28/9 50/1/9
f 90/29/10 18/30/10 85/31/10
f 82/32/11 17/33/11 84/34/11
f 58/35/12 86/36/12 92/37/12
f 40/38/13 83/39/13 89/40/13
f 32/41/14 82/32/14 87/42/14
f 18/30/15 81/43/15 85/31/15
f 78/44/16 24/45/16 73/46/16
f 70/47/17 23/48/17 72/49/17
f 80/50/18 19/51/18 74/52/18
f 42/53/19 71/54/19 77/55/19
f 34/56/20 70/47/20 75/57/20
f 24/45/21 69/58/21 73/46/21
f 64/59/22 75/57/22 79/60/22
f 71/54/23 33/61/23 76/62/23
f 91/63/14 32/41/14 87/42/14
f 83/39/24 31/64/24 88/65/24
f 55/66/5 30/23/5 57/67/5
f 8/25/25 29/68/25 12/69/25
f 43/70/26 6/71/26 36/7/26
f 44/13/5 61/72/5 65/73/5
f 6/71/27 51/74/27 48/8/27
f 60/75/28 52/6/28 67/76/28
f 30/23/5 65/73/5 57/67/5
f 12/69/29 43/70/29 36/7/29
f 23/48/30 77/55/30 72/49/30
f 74/77/31 41/78/31 78/44/31
f 17/33/32 89/40/32 84/34/32
f 86/79/33 39/80/33 90/29/33
f 45/81/34 37/82/34 53/27/34
f 10/83/35 66/16/35 62/20/35
f 30/23/5 38/84/5 44/13/5
f 49/26/36 36/7/36 54/9/36
f 49/26/37 42/53/37 23/48/37
f 19/85/38 53/27/38 41/78/38
f 67/76/39 34/56/39 64/59/39
f 48/8/40 33/61/40 22/86/40
f 53/27/41 24/45/41 41/78/41
f 47/5/42 23/48/42 21/87/42
f 59/88/43 45/12/43 19/51/43
f 54/9/44 22/86/44 42/53/44
f 52/6/45 21/87/45 34/56/45
f 24/45/46 46/3/46 20/89/46
f 33/61/47 68/10/47 59/88/47
f 46/3/48 64/59/48 20/89/48
f 29/68/49 66/16/49 43/70/49
f 57/67/5 35/90/5 9/91/5
f 4/2/50 67/76/50 46/3/50
f 65/73/51 1/92/51 35/90/51
f 3/93/52 57/67/52 9/91/52
f 81/43/53 63/94/53 91/63/53
f 69/58/54 64/59/54 79/60/54
f 76/62/55 59/88/55 80/50/55
f 88/65/12 58/35/12 92/37/12
f 60/21/56 29/68/56 26/95/56
f 43/70/57 56/18/57 28/96/57
f 51/74/58 56/97/58 68/10/58
f 76/62/59 58/35/59 31/64/59
f 14/98/60 79/60/60 63/94/60
f 13/99/61 78/44/61 39/80/61
f 72/49/62 40/38/62 17/33/62
f 16/100/63 76/62/63 31/64/63
f 63/94/64 75/57/64 32/41/64
f 73/46/65 14/98/65 18/30/65
f 75/57/64 15/101/64 32/41/64
f 77/55/66 16/100/66 40/38/66
f 80/50/67 13/102/67 58/35/67
f 15/101/68 72/49/68 17/33/68
f 39/80/69 73/46/69 18/30/69
f 88/65/70 61/103/70 27/104/70
f 3/105/71 91/63/71 55/106/71
f 1/107/72 90/29/72 35/108/72
f 11/109/73 89/40/73 38/84/73
f 5/14/70 88/65/70 27/104/70
f 55/106/74 87/42/74 25/110/74
f 85/31/75 3/105/75 9/111/75
f 87/42/74 7/22/74 25/110/74
f 38/84/76 83/39/76 5/14/76
f 61/103/77 86/36/77 1/112/77
f 82/32/78 11/109/78 7/22/78
f 35/108/79 85/31/79 9/111/79
f 50/1/80 10/28/80 4/2/80
f 26/4/81 8/25/81 47/5/81
f 36/7/82 6/71/82 48/8/82
f 68/10/83 56/97/83 2/11/83
f 44/13/5 38/84/5 5/14/5
f 66/16/84 37/113/84 2/17/84
f 4/19/85 10/83/85 62/20/85
f 7/22/5 11/109/5 30/23/5
f 8/25/86 12/69/86 49/26/86
f 53/27/87 37/82/87 10/28/87
f 90/29/88 39/80/88 18/30/88
f 82/32/89 15/101/89 17/33/89
f 58/35/90 13/102/90 86/36/90
f 40/38/91 16/100/91 83/39/91
f 32/41/92 15/101/92 82/32/92
f 18/30/93 14/98/93 81/43/93
f 78/44/94 41/78/94 24/45/94
f 70/47/95 21/87/95 23/48/95
f 80/50/96 59/88/96 19/51/96
f 42/53/97 22/86/97 71/54/97
f 34/56/98 21/87/98 70/47/98
f 24/45/99 20/89/99 69/58/99
f 64/59/100 34/56/100 75/57/100
f 71/54/101 22/86/101 33/61/101
f 91/63/102 63/94/102 32/41/102
f 83/39/103 16/100/103 31/64/103
f 55/66/5 25/24/5 30/23/5
f 8/25/104 26/95/104 29/68/104
f 43/70/105 28/96/105 6/71/105
f 44/13/5 27/15/5 61/72/5
f 6/71/106 28/114/106 51/74/106
f 60/75/107 26/4/107 52/6/107
f 30/23/5 44/13/5 65/73/5
f 12/69/108 29/68/108 43/70/108
f 23/48/109 42/53/109 77/55/109
f 74/77/110 19/85/110 41/78/110
f 17/33/111 40/38/111 89/40/111
f 86/79/112 13/99/112 39/80/112
f 45/81/113 2/115/113 37/82/113
f 10/83/114 37/113/114 66/16/114
f 30/23/5 11/109/5 38/84/5
f 49/26/115 12/69/115 36/7/115
f 49/26/116 54/9/116 42/53/116
f 19/85/117 45/81/117 53/27/117
f 67/76/118 52/6/118 34/56/118
f 48/8/119 51/74/119 33/61/119
f 53/27/9 50/1/9 24/45/9
f 47/5/120 49/26/120 23/48/120
f 59/88/121 68/10/121 45/12/121
f 54/9/122 48/8/122 22/86/122
f 52/6/123 47/5/123 21/87/123
f 24/45/124 50/1/124 46/3/124
f 33/61/125 51/74/125 68/10/125
f 46/3/28 67/76/28 64/59/28
f 29/68/126 62/20/126 66/16/126
f 57/67/5 65/73/5 35/90/5
f 4/2/127 60/75/127 67/76/127
f 65/73/128 61/72/128 1/92/128
f 3/93/129 55/66/129 57/67/129
f 81/43/130 14/98/130 63/94/130
f 69/58/131 20/89/131 64/59/131
f 76/62/132 33/61/132 59/88/132
f 88/65/133 31/64/133 58/35/133
f 60/21/134 62/20/134 29/68/134
f 43/70/135 66/16/135 56/18/135
f 51/74/136 28/114/136 56/97/136
f 76/62/137 80/50/137 58/35/137
f 14/98/138 69/58/138 79/60/138
f 13/99/139 74/77/139 78/44/139
f 72/49/140 77/55/140 40/38/140
f 16/100/141 71/54/141 76/62/141
f 63/94/22 79/60/22 75/57/22
f 73/46/142 69/58/142 14/98/142
f 75/57/143 70/47/143 15/101/143
f 77/55/144 71/54/144 16/100/144
f 80/50/18 74/52/18 13/102/18
f 15/101/145 70/47/145 72/49/145
f 39/80/146 78/44/146 73/46/146
f 88/65/12 92/37/12 61/103/12
f 3/105/147 81/43/147 91/63/147
f 1/107/148 86/79/148 90/29/148
f 11/109/149 84/34/149 89/40/149
f 5/14/150 83/39/150 88/65/150
f 55/106/151 91/63/151 87/42/151
f 85/31/152 81/43/152 3/105/152
f 87/42/153 82/32/153 7/22/153
f 38/84/154 89/40/154 83/39/154
f 61/103/12 92/37/12 86/36/12
f 82/32/155 84/34/155 11/109/155
f 35/108/33 90/29/33 85/31/33
