# Blender 3.6.0
# www.blender.org
mtllib float_Body.mtl
o 立方体
v 0.967249 1.697704 0.794971
v 1.336951 5.094864 0.813599
v 0.967249 1.653099 -0.730347
v 1.336951 5.016185 -0.944752
v 0.000000 1.653099 -0.905706
v 0.000000 5.016185 -1.175359
v 0.000000 1.697704 0.619612
v 0.000000 5.016185 0.824641
v 1.336951 4.489758 -1.000000
v 1.336951 4.489758 1.000000
v 0.000000 4.489758 0.824641
v 0.000000 4.489758 -1.175359
v 1.219864 3.932535 -1.000000
v 1.219864 3.932535 0.822782
v 0.000000 3.932535 0.824641
v 0.000000 3.932535 -1.175359
v 1.219864 3.391631 -1.000000
v 1.219864 3.391631 0.822782
v 0.000000 3.391631 0.824641
v 0.000000 3.391631 -1.287388
v 1.219864 2.842918 -1.000000
v 1.219864 2.842919 0.822782
v 0.000000 2.842918 0.824641
v 0.000000 2.842918 -1.243865
v 1.051018 2.230258 -1.000000
v 1.051018 2.230258 1.000000
v 0.000000 2.230258 0.824641
v 0.000000 2.230258 -1.175359
v 0.668475 5.016185 -1.087679
v 0.499629 1.697704 0.707291
v 0.499629 1.653099 -0.818027
v 0.668475 5.016185 0.912321
v 0.668475 4.489758 0.912321
v 0.668475 4.489758 -1.355134
v 0.668475 3.932535 -1.087679
v 0.668475 3.932535 0.735103
v 0.668475 3.391631 0.735103
v 0.668475 3.391631 -1.199709
v 0.668475 2.842918 -1.156186
v 0.668475 2.842919 0.735103
v 0.499629 2.230258 0.912321
v 0.499629 2.230258 -1.087679
v 1.201980 1.675517 0.036271
v 1.571682 5.138985 0.005191
v 0.000000 5.016185 -0.170168
v 0.000000 1.675517 -0.139088
v 1.571682 4.489758 0.005191
v 1.454596 3.932535 0.005191
v 1.454596 3.391631 0.005191
v 1.454596 2.842919 0.005191
v 1.285749 2.230258 0.005191
v 0.903207 5.153111 -0.082488
v 0.734360 1.675517 -0.051409
v -0.967249 1.697704 0.794971
v -1.336951 5.094864 0.813599
v -0.967249 1.653099 -0.730347
v -1.336951 5.016185 -0.944752
v -1.336951 4.489758 -1.000000
v -1.336951 4.489758 1.000000
v -1.219864 3.932535 -1.000000
v -1.219864 3.932535 0.822782
v -1.219864 3.391631 -1.000000
v -1.219864 3.391631 0.822782
v -1.219864 2.842918 -1.000000
v -1.219864 2.842919 0.822782
v -1.051018 2.230258 -1.000000
v -1.051018 2.230258 1.000000
v -0.668475 5.016185 -1.087679
v -0.499629 1.697704 0.707291
v -0.499629 1.653099 -0.818027
v -0.668475 5.016185 0.912321
v -0.668475 4.489758 0.912321
v -0.668475 4.489758 -1.355134
v -0.668475 3.932535 -1.087679
v -0.668475 3.932535 0.735103
v -0.668475 3.391631 0.735103
v -0.668475 3.391631 -1.199709
v -0.668475 2.842918 -1.156186
v -0.668475 2.842919 0.735103
v -0.499629 2.230258 0.912321
v -0.499629 2.230258 -1.087679
v -1.201980 1.675517 0.036271
v -1.571682 5.138985 0.005191
v -1.571682 4.489758 0.005191
v -1.454596 3.932535 0.005191
v -1.454596 3.391631 0.005191
v -1.454596 2.842919 0.005191
v -1.285749 2.230258 0.005191
v -0.903207 5.153111 -0.082488
v -0.734360 1.675517 -0.051409
vn 0.4281 0.4094 -0.8057
vn 0.9708 0.0706 0.2291
vn -0.0052 -0.9996 0.0276
vn -0.0174 0.9911 0.1323
vn -0.1300 -0.0000 0.9915
vn 0.1266 -0.3006 0.9453
vn 0.9421 -0.1980 0.2705
vn 0.1570 -0.0330 -0.9871
vn 0.3343 0.1911 -0.9229
vn 0.9612 -0.0000 0.2760
vn 0.1328 -0.0000 0.9911
vn 0.2725 -0.0000 -0.9621
vn 0.1552 -0.1519 -0.9761
vn 0.9540 -0.1978 0.2251
vn -0.1728 -0.0000 0.9849
vn -0.1616 -0.3546 0.9210
vn 0.9466 -0.1263 0.2966
vn 0.1658 -0.4371 -0.8840
vn 0.1570 -0.4180 -0.8948
vn -0.1724 -0.3539 0.9193
vn -0.1492 0.3125 0.9381
vn 0.1718 -0.1095 -0.9790
vn 0.1296 -0.0784 -0.9885
vn -0.1570 -0.0000 0.9876
vn 0.1274 0.2012 -0.9712
vn 0.1300 -0.0000 -0.9915
vn -0.1498 -0.2997 0.9422
vn 0.0134 0.9982 0.0584
vn -0.0035 -0.9996 0.0292
vn -0.2332 0.4405 -0.8670
vn -0.0051 -0.9996 0.0292
vn 0.0390 0.9897 -0.1376
vn 0.9454 -0.1587 -0.2848
vn 0.9405 -0.2592 -0.2196
vn 0.9738 -0.0000 -0.2274
vn 0.9540 -0.2005 -0.2228
vn -0.1395 0.9850 -0.1016
vn -0.0058 -0.9995 0.0310
vn 0.9735 0.0239 -0.2273
vn -0.4281 0.4094 -0.8057
vn -0.9603 -0.0000 0.2788
vn 0.0052 -0.9996 0.0276
vn 0.1499 0.9887 -0.0000
vn 0.1300 -0.0000 0.9915
vn -0.1266 -0.3006 0.9453
vn -0.9421 -0.1980 0.2705
vn -0.4320 -0.3903 -0.8131
vn -0.3343 0.1911 -0.9229
vn -0.9612 -0.0000 0.2760
vn -0.1328 -0.0000 0.9911
vn -0.3396 -0.0744 -0.9376
vn -0.1552 -0.1519 -0.9761
vn -0.9291 -0.2561 0.2668
vn -0.1288 0.2426 0.9615
vn 0.1616 -0.3546 0.9210
vn -0.9466 -0.1263 0.2966
vn -0.1426 -0.4190 -0.8967
vn -0.1570 -0.4180 -0.8948
vn 0.1480 -0.3350 0.9305
vn 0.1492 0.3125 0.9381
vn -0.1718 -0.1095 -0.9790
vn -0.1296 -0.0784 -0.9885
vn 0.1570 -0.0000 0.9876
vn -0.1274 0.2012 -0.9712
vn -0.1300 -0.0000 -0.9915
vn 0.1250 -0.2768 0.9528
vn -0.1059 0.2927 0.9503
vn -0.0134 0.9982 0.0584
vn 0.0035 -0.9996 0.0292
vn 0.0051 -0.9996 0.0292
vn -0.0303 0.9894 -0.1419
vn -0.9453 -0.2403 -0.2207
vn -0.9405 -0.2592 -0.2196
vn -0.9738 -0.0000 -0.2274
vn -0.9540 -0.2005 -0.2228
vn -0.0000 1.0000 -0.0000
vn 0.0058 -0.9995 0.0310
vn -0.9735 0.0239 -0.2273
vn 0.2080 0.1021 -0.9728
vn 0.9603 -0.0000 0.2788
vn -0.1499 0.9887 -0.0000
vn 0.9378 -0.2674 0.2213
vn 0.4320 -0.3903 -0.8131
vn 0.1570 -0.0000 -0.9876
vn 0.3396 -0.0744 -0.9376
vn 0.2718 -0.0749 -0.9594
vn 0.9291 -0.2561 0.2668
vn 0.1288 0.2426 0.9615
vn 0.9461 -0.2348 0.2232
vn 0.1426 -0.4190 -0.8967
vn -0.1480 -0.3350 0.9305
vn 0.1287 -0.1452 -0.9810
vn -0.2356 -0.4205 -0.8761
vn -0.1250 -0.2768 0.9528
vn 0.1059 0.2927 0.9503
vn -0.0997 0.9886 0.1125
vn -0.0049 -0.9996 0.0277
vn -0.0036 -0.9995 0.0303
vn 0.0303 0.9894 -0.1419
vn 0.9453 -0.2403 -0.2207
vn 0.9708 -0.0000 -0.2399
vn -0.2080 0.1021 -0.9728
vn -0.9708 0.0706 0.2291
vn 0.0174 0.9911 0.1323
vn -0.9378 -0.2674 0.2213
vn -0.1570 -0.0330 -0.9871
vn -0.1570 -0.0000 -0.9876
vn -0.2725 -0.0000 -0.9621
vn -0.2718 -0.0749 -0.9594
vn -0.9540 -0.1978 0.2251
vn 0.1728 -0.0000 0.9849
vn -0.9461 -0.2348 0.2232
vn -0.1658 -0.4371 -0.8840
vn 0.1724 -0.3539 0.9193
vn -0.1287 -0.1452 -0.9810
vn 0.2356 -0.4205 -0.8761
vn 0.1498 -0.2997 0.9422
vn 0.0997 0.9886 0.1125
vn 0.0049 -0.9996 0.0277
vn 0.2332 0.4405 -0.8670
vn 0.0036 -0.9995 0.0303
vn -0.0390 0.9897 -0.1376
vn -0.9454 -0.1587 -0.2848
vn 0.1395 0.9850 -0.1016
vn -0.9708 -0.0000 -0.2399
vt 0.625000 0.437500
vt 0.585867 0.500000
vt 0.585867 0.437500
vt 0.585867 0.625649
vt 0.625000 0.750000
vt 0.585867 0.750000
vt 0.375000 0.625649
vt 0.312500 0.750000
vt 0.312500 0.625649
vt 0.687500 0.625649
vt 0.750000 0.750000
vt 0.687500 0.750000
vt 0.625000 0.812500
vt 0.585867 0.875000
vt 0.585867 0.812500
vt 0.544445 0.875000
vt 0.544445 0.812500
vt 0.544445 0.750000
vt 0.544445 0.625649
vt 0.544445 0.437500
vt 0.544445 0.500000
vt 0.504236 0.500000
vt 0.504236 0.437500
vt 0.504236 0.750000
vt 0.504236 0.625649
vt 0.504236 0.875000
vt 0.504236 0.812500
vt 0.463447 0.875000
vt 0.463447 0.812500
vt 0.463447 0.750000
vt 0.463447 0.625649
vt 0.463447 0.437500
vt 0.463447 0.500000
vt 0.417904 0.500000
vt 0.417904 0.437500
vt 0.417904 0.625649
vt 0.417904 0.750000
vt 0.417904 0.812500
vt 0.417904 0.875000
vt 0.375000 0.812500
vt 0.375000 0.875000
vt 0.375000 0.750000
vt 0.375000 0.437500
vt 0.375000 0.500000
vt 0.375000 0.375000
vt 0.463447 0.375000
vt 0.417904 0.375000
vt 0.544445 0.375000
vt 0.504236 0.375000
vt 0.585867 0.375000
vt 0.625000 0.625649
vt 0.250000 0.750000
vt 0.250000 0.625649
vt 0.312500 0.500000
vt 0.250000 0.500000
vt 0.625000 0.500000
vt 0.687500 0.500000
vt 0.750000 0.625649
vt 0.625000 0.375000
vt 0.750000 0.500000
vt 0.625000 0.875000
s 0
f 29/1/1 9/2/1 34/3/1
f 47/4/2 2/5/2 10/6/2
f 43/7/3 30/8/3 53/9/3
f 52/10/4 8/11/4 32/12/4
f 32/13/5 11/14/5 33/15/5
f 33/15/6 15/16/6 36/17/6
f 47/4/7 14/18/7 48/19/7
f 35/20/8 9/2/8 13/21/8
f 35/20/9 17/22/9 38/23/9
f 48/19/10 18/24/10 49/25/10
f 36/17/11 19/26/11 37/27/11
f 37/27/11 23/28/11 40/29/11
f 49/25/10 22/30/10 50/31/10
f 39/32/12 17/22/12 21/33/12
f 39/32/13 25/34/13 42/35/13
f 51/36/14 22/30/14 26/37/14
f 41/38/15 23/28/15 27/39/15
f 30/40/16 27/39/16 7/41/16
f 51/36/17 1/42/17 43/7/17
f 31/43/18 25/34/18 3/44/18
f 5/45/19 42/35/19 31/43/19
f 1/42/20 41/38/20 30/40/20
f 26/37/21 40/29/21 41/38/21
f 24/46/22 42/35/22 28/47/22
f 24/46/23 38/23/23 39/32/23
f 18/24/24 40/29/24 22/30/24
f 14/18/24 37/27/24 18/24/24
f 16/48/25 38/23/25 20/49/25
f 12/50/26 35/20/26 16/48/26
f 14/18/27 33/15/27 36/17/27
f 10/6/5 32/13/5 33/15/5
f 52/10/28 2/5/28 44/51/28
f 53/9/29 7/52/29 46/53/29
f 12/50/30 29/1/30 34/3/30
f 31/54/31 46/53/31 5/55/31
f 4/56/32 52/10/32 44/51/32
f 3/44/33 51/36/33 43/7/33
f 21/33/34 51/36/34 25/34/34
f 17/22/35 50/31/35 21/33/35
f 13/21/35 49/25/35 17/22/35
f 9/2/36 48/19/36 13/21/36
f 29/57/37 45/58/37 52/10/37
f 3/44/38 53/9/38 31/54/38
f 4/56/39 47/4/39 9/2/39
f 58/2/40 68/1/40 73/3/40
f 84/4/41 55/5/41 83/51/41
f 69/8/42 82/7/42 90/9/42
f 89/10/43 8/11/43 45/58/43
f 11/14/44 71/13/44 72/15/44
f 15/16/45 72/15/45 75/17/45
f 61/18/46 84/4/46 85/19/46
f 74/20/47 58/2/47 73/3/47
f 62/22/48 74/20/48 77/23/48
f 63/24/49 85/19/49 86/25/49
f 19/26/50 75/17/50 76/27/50
f 23/28/50 76/27/50 79/29/50
f 65/30/49 86/25/49 87/31/49
f 78/32/51 62/22/51 77/23/51
f 66/34/52 78/32/52 81/35/52
f 88/36/53 65/30/53 87/31/53
f 80/38/54 23/28/54 79/29/54
f 69/40/55 27/39/55 80/38/55
f 54/42/56 88/36/56 82/7/56
f 70/43/57 66/34/57 81/35/57
f 5/45/58 81/35/58 28/47/58
f 54/42/59 80/38/59 67/37/59
f 67/37/60 79/29/60 65/30/60
f 81/35/61 24/46/61 28/47/61
f 24/46/62 77/23/62 20/49/62
f 79/29/63 63/24/63 65/30/63
f 76/27/63 61/18/63 63/24/63
f 77/23/64 16/48/64 20/49/64
f 74/20/65 12/50/65 16/48/65
f 61/18/66 72/15/66 59/6/66
f 59/6/67 71/13/67 55/5/67
f 55/5/68 89/10/68 83/51/68
f 7/52/69 90/9/69 46/53/69
f 12/50/65 68/1/65 6/59/65
f 46/53/70 70/54/70 5/55/70
f 57/56/71 89/10/71 68/57/71
f 56/44/72 88/36/72 66/34/72
f 88/36/73 64/33/73 66/34/73
f 87/31/74 62/22/74 64/33/74
f 86/25/74 60/21/74 62/22/74
f 85/19/75 58/2/75 60/21/75
f 68/57/76 45/58/76 6/60/76
f 90/9/77 56/44/77 70/54/77
f 84/4/78 57/56/78 58/2/78
f 29/1/79 4/56/79 9/2/79
f 47/4/80 44/51/80 2/5/80
f 43/7/3 1/42/3 30/8/3
f 52/10/81 45/58/81 8/11/81
f 32/13/5 8/61/5 11/14/5
f 33/15/5 11/14/5 15/16/5
f 47/4/82 10/6/82 14/18/82
f 35/20/83 34/3/83 9/2/83
f 35/20/84 13/21/84 17/22/84
f 48/19/10 14/18/10 18/24/10
f 36/17/11 15/16/11 19/26/11
f 37/27/11 19/26/11 23/28/11
f 49/25/10 18/24/10 22/30/10
f 39/32/85 38/23/85 17/22/85
f 39/32/86 21/33/86 25/34/86
f 51/36/87 50/31/87 22/30/87
f 41/38/88 40/29/88 23/28/88
f 30/40/16 41/38/16 27/39/16
f 51/36/89 26/37/89 1/42/89
f 31/43/90 42/35/90 25/34/90
f 5/45/19 28/47/19 42/35/19
f 1/42/91 26/37/91 41/38/91
f 26/37/21 22/30/21 40/29/21
f 24/46/92 39/32/92 42/35/92
f 24/46/23 20/49/23 38/23/23
f 18/24/24 37/27/24 40/29/24
f 14/18/24 36/17/24 37/27/24
f 16/48/25 35/20/25 38/23/25
f 12/50/93 34/3/93 35/20/93
f 14/18/94 10/6/94 33/15/94
f 10/6/95 2/5/95 32/13/95
f 52/10/96 32/12/96 2/5/96
f 53/9/97 30/8/97 7/52/97
f 12/50/26 6/59/26 29/1/26
f 31/54/98 53/9/98 46/53/98
f 4/56/99 29/57/99 52/10/99
f 3/44/100 25/34/100 51/36/100
f 21/33/34 50/31/34 51/36/34
f 17/22/35 49/25/35 50/31/35
f 13/21/35 48/19/35 49/25/35
f 9/2/36 47/4/36 48/19/36
f 29/57/76 6/60/76 45/58/76
f 3/44/38 43/7/38 53/9/38
f 4/56/101 44/51/101 47/4/101
f 58/2/102 57/56/102 68/1/102
f 84/4/103 59/6/103 55/5/103
f 69/8/42 54/42/42 82/7/42
f 89/10/104 71/12/104 8/11/104
f 11/14/44 8/61/44 71/13/44
f 15/16/44 11/14/44 72/15/44
f 61/18/105 59/6/105 84/4/105
f 74/20/106 60/21/106 58/2/106
f 62/22/107 60/21/107 74/20/107
f 63/24/49 61/18/49 85/19/49
f 19/26/50 15/16/50 75/17/50
f 23/28/50 19/26/50 76/27/50
f 65/30/49 63/24/49 86/25/49
f 78/32/108 64/33/108 62/22/108
f 66/34/109 64/33/109 78/32/109
f 88/36/110 67/37/110 65/30/110
f 80/38/111 27/39/111 23/28/111
f 69/40/55 7/41/55 27/39/55
f 54/42/112 67/37/112 88/36/112
f 70/43/113 56/44/113 66/34/113
f 5/45/58 70/43/58 81/35/58
f 54/42/114 69/40/114 80/38/114
f 67/37/60 80/38/60 79/29/60
f 81/35/115 78/32/115 24/46/115
f 24/46/62 78/32/62 77/23/62
f 79/29/63 76/27/63 63/24/63
f 76/27/63 75/17/63 61/18/63
f 77/23/64 74/20/64 16/48/64
f 74/20/116 73/3/116 12/50/116
f 61/18/117 75/17/117 72/15/117
f 59/6/44 72/15/44 71/13/44
f 55/5/118 71/12/118 89/10/118
f 7/52/119 69/8/119 90/9/119
f 12/50/120 73/3/120 68/1/120
f 46/53/121 90/9/121 70/54/121
f 57/56/122 83/51/122 89/10/122
f 56/44/123 82/7/123 88/36/123
f 88/36/73 87/31/73 64/33/73
f 87/31/74 86/25/74 62/22/74
f 86/25/74 85/19/74 60/21/74
f 85/19/75 84/4/75 58/2/75
f 68/57/124 89/10/124 45/58/124
f 90/9/77 82/7/77 56/44/77
f 84/4/125 83/51/125 57/56/125
