# Blender 3.6.0
# www.blender.org
mtllib float_R_arm.mtl
o 立方体.001
v -6.322963 -3.189102 0.578963
v -6.322963 -2.581400 0.578963
v -6.322963 -3.189102 0.000753
v -6.322963 -2.581400 0.000753
v -5.771018 -3.189102 0.578963
v -5.771018 -2.581400 0.578963
v -5.771018 -3.189102 0.000753
v -5.771018 -2.581400 0.000753
v -6.383439 -3.255687 0.289858
v -6.383439 -2.885251 0.642317
v -6.383439 -2.514815 0.289858
v -6.383439 -2.885251 -0.062601
v -6.046990 -3.255687 -0.062601
v -6.046990 -2.514815 -0.062601
v -5.710542 -2.885251 -0.062601
v -5.710542 -3.255687 0.289858
v -5.710542 -2.514815 0.289858
v -5.710542 -2.885251 0.642317
v -6.046990 -3.255687 0.642317
v -6.046990 -2.514815 0.642317
v -6.510352 -2.885251 0.289858
v -6.046990 -2.885251 -0.195554
v -5.583629 -2.885251 0.289858
v -6.046990 -2.885251 0.775269
v -6.046990 -3.395421 0.289858
v -6.046990 -2.375081 0.289858
vn -0.9127 -0.3127 0.2629
vn -0.9111 0.2497 0.3281
vn -0.9111 0.2497 -0.3281
vn -0.9127 -0.3127 -0.2629
vn -0.2852 -0.3238 -0.9021
vn -0.3551 0.2580 -0.8985
vn 0.3551 0.2580 -0.8985
vn 0.2852 -0.3238 -0.9021
vn 0.9127 -0.3127 -0.2629
vn 0.9111 0.2497 -0.3281
vn 0.9111 0.2497 0.3281
vn 0.9127 -0.3127 0.2629
vn 0.2852 -0.3238 0.9021
vn 0.3551 0.2580 0.8985
vn -0.3551 0.2580 0.8985
vn -0.2852 -0.3238 0.9021
vn -0.3681 -0.8863 -0.2811
vn 0.2951 -0.8882 -0.3521
vn 0.2951 -0.8882 0.3521
vn -0.3681 -0.8863 0.2811
vn 0.3681 0.8863 -0.2811
vn -0.2951 0.8882 -0.3521
vn -0.2951 0.8882 0.3521
vn 0.3681 0.8863 0.2811
vn -0.9111 -0.2497 0.3281
vn -0.9127 0.3127 0.2629
vn -0.9127 0.3127 -0.2629
vn -0.9111 -0.2497 -0.3281
vn -0.3551 -0.2580 -0.8985
vn -0.2852 0.3238 -0.9021
vn 0.2852 0.3238 -0.9021
vn 0.3551 -0.2580 -0.8985
vn 0.9111 -0.2497 -0.3281
vn 0.9127 0.3127 -0.2629
vn 0.9127 0.3127 0.2629
vn 0.9111 -0.2497 0.3281
vn 0.3551 -0.2580 0.8985
vn 0.2852 0.3238 0.9021
vn -0.2852 0.3238 0.9021
vn -0.3551 -0.2580 0.8985
vn -0.2951 -0.8882 -0.3521
vn 0.3681 -0.8863 -0.2811
vn 0.3681 -0.8863 0.2811
vn -0.2951 -0.8882 0.3521
vn 0.2951 0.8882 -0.3521
vn -0.3681 0.8863 -0.2811
vn -0.3681 0.8863 0.2811
vn 0.2951 0.8882 0.3521
vt 0.375000 0.000000
vt 0.500000 0.125000
vt 0.375000 0.125000
vt 0.625000 0.000000
vt 0.500000 0.000000
vt 0.625000 0.250000
vt 0.500000 0.250000
vt 0.375000 0.250000
vt 0.500000 0.375000
vt 0.375000 0.375000
vt 0.625000 0.500000
vt 0.500000 0.500000
vt 0.375000 0.500000
vt 0.500000 0.625000
vt 0.375000 0.625000
vt 0.625000 0.750000
vt 0.500000 0.750000
vt 0.375000 0.750000
vt 0.500000 0.875000
vt 0.375000 0.875000
vt 0.625000 1.000000
vt 0.500000 1.000000
vt 0.375000 1.000000
vt 0.125000 0.500000
vt 0.250000 0.625000
vt 0.125000 0.625000
vt 0.250000 0.500000
vt 0.250000 0.750000
vt 0.125000 0.750000
vt 0.750000 0.625000
vt 0.625000 0.625000
vt 0.875000 0.500000
vt 0.750000 0.500000
vt 0.875000 0.750000
vt 0.750000 0.750000
vt 0.625000 0.125000
vt 0.625000 0.375000
vt 0.625000 0.875000
vt 0.875000 0.625000
s 0
f 1/1/1 21/2/1 9/3/1
f 2/4/2 21/2/2 10/5/2
f 21/2/3 4/6/3 12/7/3
f 21/2/4 3/8/4 9/3/4
f 3/8/5 22/9/5 13/10/5
f 4/6/6 22/9/6 12/7/6
f 22/9/7 8/11/7 15/12/7
f 22/9/8 7/13/8 13/10/8
f 7/13/9 23/14/9 16/15/9
f 8/11/10 23/14/10 15/12/10
f 23/14/11 6/16/11 18/17/11
f 23/14/12 5/18/12 16/15/12
f 5/18/13 24/19/13 19/20/13
f 6/16/14 24/19/14 18/17/14
f 24/19/15 2/21/15 10/22/15
f 24/19/16 1/23/16 19/20/16
f 3/24/17 25/25/17 9/26/17
f 7/13/18 25/25/18 13/27/18
f 25/25/19 5/18/19 19/28/19
f 25/25/20 1/29/20 9/26/20
f 8/11/21 26/30/21 17/31/21
f 4/32/22 26/30/22 14/33/22
f 26/30/23 2/34/23 20/35/23
f 26/30/24 6/16/24 17/31/24
f 1/1/25 10/5/25 21/2/25
f 2/4/26 11/36/26 21/2/26
f 21/2/27 11/36/27 4/6/27
f 21/2/28 12/7/28 3/8/28
f 3/8/29 12/7/29 22/9/29
f 4/6/30 14/37/30 22/9/30
f 22/9/31 14/37/31 8/11/31
f 22/9/32 15/12/32 7/13/32
f 7/13/33 15/12/33 23/14/33
f 8/11/34 17/31/34 23/14/34
f 23/14/35 17/31/35 6/16/35
f 23/14/36 18/17/36 5/18/36
f 5/18/37 18/17/37 24/19/37
f 6/16/38 20/38/38 24/19/38
f 24/19/39 20/38/39 2/21/39
f 24/19/40 10/22/40 1/23/40
f 3/24/41 13/27/41 25/25/41
f 7/13/42 16/15/42 25/25/42
f 25/25/43 16/15/43 5/18/43
f 25/25/44 19/28/44 1/29/44
f 8/11/45 14/33/45 26/30/45
f 4/32/46 11/39/46 26/30/46
f 26/30/47 11/39/47 2/34/47
f 26/30/48 20/35/48 6/16/48
o 立方体.004
v -2.255272 -1.590354 0.660194
v -2.454517 -0.666736 0.707739
v -5.915265 -3.076684 0.478816
v -6.085033 -2.589640 0.512208
v -2.264739 -1.535396 -0.189535
v -2.463060 -0.617138 -0.059114
v -5.920390 -3.046930 0.018781
v -6.090159 -2.559887 0.052173
v -3.328633 -1.877538 0.610494
v -3.477524 -1.338084 0.662981
v -3.338115 -1.822522 -0.108251
v -3.487006 -1.283064 -0.056596
v -2.968449 -1.738477 0.596543
v -2.211855 -1.311188 0.808348
v -4.232484 -1.748776 0.559082
v -6.084301 -2.895566 0.530073
v -5.984702 -3.156568 0.244755
v -6.189831 -2.600133 0.283029
v -6.090232 -2.861135 -0.002289
v -4.067230 -2.208338 -0.015389
v -3.124019 -1.065126 -0.071927
v -2.223916 -1.241174 -0.274164
v -2.131132 -1.667402 0.240822
v -2.371478 -0.523999 0.317452
v -4.028049 -2.214062 0.437860
v -3.116033 -1.111475 0.583997
v -2.976482 -1.691838 -0.124563
v -4.236558 -1.710938 0.024711
v -3.551238 -1.151264 0.309140
v -3.291172 -2.030955 0.232972
v -3.399268 -1.622018 -0.251032
v -3.386190 -1.697914 0.793118
v -4.152212 -2.022329 0.648940
v -6.092257 -2.972480 0.260673
v -3.041746 -1.396956 -0.236283
v -2.066790 -1.206043 0.268762
v -2.933985 -1.867250 0.225687
v -3.149091 -0.932735 0.298983
v -4.281519 -1.643369 0.286457
v -4.042230 -2.321449 0.230245
v -4.116864 -1.948694 -0.146167
v -3.030671 -1.461249 0.757776
v -3.843674 -1.483357 0.648837
v -3.679879 -2.043080 -0.097461
v -3.670671 -2.096503 0.596447
v -3.852882 -1.429930 -0.045907
v -3.743364 -1.882769 0.770083
v -3.916874 -1.387486 0.305604
v -3.640393 -2.220488 0.233543
v -3.778600 -1.687374 -0.229620
v -2.680908 -1.656897 0.666888
v -2.899435 -0.899429 -0.082461
v -2.842109 -0.944532 0.784364
v -2.690267 -1.602561 -0.173223
v -2.697803 -1.335885 -0.278434
v -2.598995 -1.769024 0.236552
v -2.827137 -0.735415 0.316106
v -2.685625 -1.406584 0.814660
v -2.475502 -1.591419 0.647916
v -2.664535 -0.747339 -0.125821
v -2.654802 -0.803843 0.747811
v -2.479052 -1.568473 -0.191015
v -2.456289 -1.297041 -0.286017
v -2.370266 -1.663126 0.239905
v -2.600173 -0.619727 0.320342
v -2.443968 -1.368571 0.819935
v -5.154864 -2.184284 0.567514
v -4.993623 -2.639728 -0.044137
v -4.968847 -2.660928 0.482193
v -5.162726 -2.143626 -0.003364
v -5.115916 -2.467454 0.625569
v -5.236167 -2.096548 0.287632
v -5.008294 -2.773094 0.235485
v -5.105452 -2.402396 -0.126398
v -4.493876 -2.459293 0.497285
v -4.701678 -1.924868 -0.047868
v -4.631535 -2.248965 0.699535
v -4.761339 -1.834150 0.292058
v -4.519915 -2.580805 0.230759
v -4.613879 -2.173779 -0.215319
v -4.691812 -1.967024 0.615158
v -4.529027 -2.445747 -0.093758
v -5.623774 -2.367293 0.532475
v -5.454433 -2.855885 -0.005735
v -5.440176 -2.879683 0.475548
v -5.629373 -2.334789 0.029917
v -5.600907 -2.678438 0.569417
v -5.715559 -2.335025 0.284259
v -5.495478 -2.969268 0.240786
v -5.597383 -2.632735 -0.055766
vn -0.0442 -0.7523 0.6573
vn -0.3409 0.2016 0.9182
vn -0.1067 0.0577 0.9926
vn 0.0875 -0.1948 0.9769
vn -0.7770 -0.4883 0.3972
vn -0.9608 -0.2579 0.1020
vn -0.9629 -0.2456 -0.1114
vn -0.7941 -0.4265 -0.4330
vn 0.1580 -0.5404 -0.8265
vn -0.2387 0.4360 -0.8677
vn -0.0168 0.2739 -0.9616
vn 0.0581 -0.3341 -0.9407
vn 0.9389 -0.1112 -0.3256
vn 0.8615 0.4256 -0.2769
vn 0.8734 0.3770 0.3083
vn 0.9403 -0.1497 0.3058
vn 0.3505 -0.8742 0.3361
vn 0.3462 -0.7787 -0.5233
vn -0.0160 -0.9573 -0.2887
vn -0.0048 -0.9851 0.1719
vn -0.4896 0.7894 -0.3704
vn -0.3976 0.7559 0.5201
vn -0.3714 0.8947 0.2482
vn -0.4937 0.8523 -0.1726
vn -0.3598 0.8838 -0.2990
vn -0.3360 0.8566 0.3916
vn -0.4776 0.7320 0.4860
vn -0.3711 0.9115 -0.1776
vn 0.4683 -0.7974 0.3805
vn 0.4459 -0.8219 -0.3546
vn 0.4212 -0.7775 -0.4670
vn 0.4902 -0.7894 0.3695
vn 0.3099 -0.3057 -0.9003
vn -0.1203 0.5246 -0.8428
vn -0.1409 0.5478 -0.8246
vn 0.1657 -0.3027 -0.9386
vn -0.0641 -0.5124 0.8563
vn -0.1641 0.0091 0.9864
vn -0.1140 0.3122 0.9432
vn 0.2751 -0.6407 0.7168
vn 0.0025 -0.4495 -0.8933
vn -0.4688 0.3476 -0.8120
vn 0.1591 -0.9301 0.3310
vn 0.2237 -0.8765 -0.4264
vn -0.5993 0.7441 -0.2950
vn -0.5434 0.7455 0.3860
vn -0.1867 0.2421 0.9521
vn 0.3095 -0.5340 0.7868
vn -0.0305 0.0551 0.9980
vn 0.2340 -0.4910 0.8391
vn -0.5739 0.7582 -0.3094
vn -0.4697 0.7224 0.5075
vn 0.1973 -0.9388 0.2822
vn 0.2639 -0.8493 -0.4573
vn -0.0451 -0.3626 -0.9308
vn -0.1811 0.4001 -0.8984
vn -0.0471 -0.4625 0.8854
vn 0.0166 0.1328 0.9910
vn -0.5585 0.7978 -0.2270
vn -0.4366 0.8452 0.3083
vn 0.3148 -0.9021 0.2950
vn 0.3864 -0.8213 -0.4197
vn -0.0190 -0.3674 -0.9299
vn -0.0891 0.3735 -0.9234
vn -0.2484 0.2430 -0.9377
vn 0.0164 -0.2087 -0.9778
vn 0.3476 -0.8725 -0.3434
vn 0.3940 -0.8588 0.3275
vn -0.4302 0.8611 0.2710
vn -0.3826 0.8920 -0.2409
vn 0.1820 -0.4924 0.8511
vn -0.2218 0.1665 0.9608
vn -0.0313 0.2804 0.9594
vn 0.3671 -0.5086 0.7788
vn -0.3211 0.3478 -0.8809
vn 0.0301 -0.3147 -0.9487
vn 0.3338 -0.8575 -0.3915
vn 0.3551 -0.8632 0.3589
vn -0.4418 0.7923 0.4209
vn -0.4323 0.8495 -0.3026
vn -0.4399 0.8858 -0.1482
vn -0.4803 0.8584 0.1803
vn 0.3720 -0.8930 0.2531
vn 0.3349 -0.8817 -0.3325
vn -0.0044 -0.1167 -0.9932
vn -0.1859 0.1748 -0.9669
vn 0.1381 -0.3259 0.9352
vn -0.1593 0.1048 0.9817
vn -0.0132 -0.6332 0.7739
vn -0.3437 0.1927 0.9191
vn -0.0967 0.1103 0.9892
vn 0.0875 -0.3629 0.9277
vn -0.6815 -0.6981 0.2194
vn -0.9096 0.0221 0.4149
vn -0.9202 0.0698 -0.3851
vn -0.6908 -0.6639 -0.2864
vn 0.2274 -0.3006 -0.9262
vn -0.2628 0.3751 -0.8889
vn 0.0810 0.3523 -0.9324
vn 0.1181 -0.2896 -0.9498
vn 0.9435 -0.2056 -0.2598
vn 0.8598 0.4062 -0.3096
vn 0.8733 0.3673 0.3201
vn 0.9450 -0.2554 0.2043
vn 0.3919 -0.8381 0.3795
vn 0.2841 -0.8431 -0.4567
vn 0.1494 -0.9572 -0.2480
vn -0.0183 -0.9843 0.1754
vn -0.4577 0.8271 -0.3262
vn -0.3825 0.7818 0.4924
vn -0.5012 0.8162 0.2875
vn -0.3841 0.9137 -0.1326
vn -0.3565 0.8880 -0.2905
vn -0.3473 0.8387 0.4196
vn -0.3599 0.8759 0.3214
vn -0.5016 0.7820 -0.3699
vn 0.4501 -0.8283 0.3337
vn 0.4712 -0.7819 -0.4080
vn 0.4554 -0.7305 -0.5089
vn 0.4520 -0.8319 0.3219
vn 0.2956 -0.3841 -0.8747
vn -0.1181 0.5396 -0.8336
vn -0.2047 0.4466 -0.8710
vn 0.0517 -0.5688 -0.8209
vn -0.0611 -0.5083 0.8590
vn -0.6554 0.2017 0.7279
vn -0.0726 0.4295 0.9001
vn 0.3557 -0.4089 0.8404
vn 0.0312 -0.3405 -0.9397
vn -0.4559 0.4261 -0.7814
vn 0.2158 -0.8732 0.4369
vn 0.2562 -0.8389 -0.4802
vn -0.5560 0.8071 -0.1987
vn -0.5829 0.7418 0.3315
vn -0.1557 0.3008 0.9409
vn 0.2837 -0.6374 0.7164
vn 0.0763 0.1543 0.9851
vn 0.0798 -0.6161 0.7836
vn -0.4959 0.8310 -0.2520
vn -0.6451 0.7052 0.2943
vn 0.2547 -0.9059 0.3382
vn 0.2081 -0.8892 -0.4075
vn -0.0485 -0.3678 -0.9287
vn -0.2595 0.2933 -0.9201
vn 0.1906 -0.6166 0.7639
vn 0.0727 0.1805 0.9809
vn -0.4434 0.8767 -0.1868
vn -0.5238 0.7839 0.3333
vn 0.4028 -0.8781 0.2582
vn 0.1343 -0.9602 -0.2448
vn 0.0238 -0.3320 -0.9430
vn -0.2830 0.1680 -0.9443
vn -0.2193 0.3789 -0.8991
vn 0.0145 -0.3213 -0.9469
vn 0.3654 -0.8475 -0.3850
vn 0.3635 -0.8957 0.2562
vn -0.3614 0.8546 0.3729
vn -0.4396 0.8859 -0.1482
vn 0.1655 -0.6251 0.7628
vn -0.2097 0.2389 0.9481
vn -0.0284 0.3044 0.9521
vn 0.3520 -0.5805 0.7343
vn -0.2982 0.4581 -0.8374
vn 0.0216 -0.4024 -0.9152
vn 0.3237 -0.8703 -0.3713
vn 0.3472 -0.8734 0.3416
vn -0.4246 0.8214 0.3808
vn -0.4659 0.8474 -0.2547
vn -0.4870 0.8715 -0.0583
vn -0.4277 0.8626 0.2703
vn 0.3512 -0.9130 0.2074
vn 0.3404 -0.8745 -0.3455
vn -0.0035 -0.2209 -0.9753
vn -0.1707 0.2553 -0.9517
vn 0.1306 -0.5243 0.8415
vn -0.1429 0.1799 0.9733
vt 0.375000 0.114453
vt 0.500000 0.163637
vt 0.375000 0.161169
vt 0.500000 0.123316
vt 0.625000 0.161169
vt 0.500000 0.235944
vt 0.625000 0.250000
vt 0.500000 0.260047
vt 0.375000 0.227792
vt 0.375000 0.250000
vt 0.500000 0.375000
vt 0.375000 0.375000
vt 0.625000 0.375000
vt 0.500000 0.489953
vt 0.375000 0.500000
vt 0.500000 0.660108
vt 0.375000 0.712254
vt 0.375000 0.660108
vt 0.625000 0.660108
vt 0.500000 0.714104
vt 0.625000 0.740563
vt 0.500000 0.774675
vt 0.500000 0.759532
vt 0.375000 0.750000
vt 0.375000 0.740563
vt 0.500000 0.877468
vt 0.375000 0.875000
vt 0.625000 0.750000
vt 0.625000 1.000000
vt 0.500000 1.000000
vt 0.375000 1.000000
vt 0.125000 0.677661
vt 0.250000 0.712002
vt 0.125000 0.713831
vt 0.250000 0.661571
vt 0.250000 0.740501
vt 0.250000 0.750000
vt 0.125000 0.750000
vt 0.125000 0.740958
vt 0.750000 0.661570
vt 0.625000 0.712253
vt 0.875000 0.713831
vt 0.750000 0.712002
vt 0.750000 0.740501
vt 0.875000 0.750000
vt 0.750000 0.750000
vt 0.750000 0.565252
vt 0.625000 0.586385
vt 0.625000 0.564789
vt 0.875000 0.588831
vt 0.750000 0.587002
vt 0.750000 0.626218
vt 0.875000 0.677661
vt 0.625000 0.625156
vt 0.125000 0.566623
vt 0.250000 0.587002
vt 0.125000 0.588831
vt 0.375000 0.564789
vt 0.250000 0.565252
vt 0.375000 0.625156
vt 0.250000 0.626218
vt 0.125000 0.635547
vt 0.500000 0.561712
vt 0.375000 0.586385
vt 0.500000 0.585632
vt 0.500000 0.624799
vt 0.375000 0.018085
vt 0.500000 0.037632
vt 0.375000 0.036169
vt 0.625000 0.018085
vt 0.500000 0.018816
vt 0.625000 0.072338
vt 0.500000 0.086967
vt 0.375000 0.072338
vt 0.625000 0.114453
vt 0.500000 0.009408
vt 0.375000 0.009042
vt 0.625000 0.731127
vt 0.750000 0.731001
vt 0.250000 0.731001
vt 0.125000 0.731915
vt 0.375000 0.731127
vt 0.500000 0.744390
vt 0.500000 0.000000
vt 0.375000 0.000000
vt 0.625000 0.009042
vt 0.875000 0.740958
vt 0.625000 0.521596
vt 0.500000 0.537792
vt 0.500000 0.513873
vt 0.375000 0.543193
vt 0.375000 0.521596
vt 0.250000 0.543501
vt 0.250000 0.521751
vt 0.125000 0.522208
vt 0.125000 0.544415
vt 0.875000 0.522208
vt 0.750000 0.543501
vt 0.750000 0.521751
vt 0.625000 0.543193
vt 0.375000 0.183377
vt 0.500000 0.211842
vt 0.375000 0.205585
vt 0.500000 0.187739
vt 0.625000 0.205585
vt 0.625000 0.183377
vt 0.875000 0.566623
vt 0.625000 0.500000
vt 0.875000 0.500000
vt 0.750000 0.500000
vt 0.125000 0.500000
vt 0.250000 0.500000
vt 0.625000 0.227792
vt 0.625000 0.875000
vt 0.875000 0.635547
vt 0.625000 0.036169
vt 0.875000 0.731915
vt 0.625000 0.000000
vt 0.875000 0.544415
s 0
f 71/40/49 59/41/49 51/42/49
f 73/43/50 41/44/50 59/41/50
f 113/45/51 30/46/51 42/47/51
f 111/48/52 42/47/52 29/49/52
f 29/49/53 60/50/53 43/51/53
f 42/47/54 44/52/54 60/50/54
f 44/52/55 45/53/55 60/50/55
f 60/50/56 33/54/56 43/51/56
f 57/55/57 53/56/57 37/57/57
f 38/58/58 61/59/58 57/55/58
f 86/60/59 48/61/59 89/62/59
f 89/62/60 31/63/60 88/64/60
f 31/63/61 62/65/61 49/66/61
f 32/67/62 62/65/62 48/61/62
f 62/65/63 28/68/63 40/69/63
f 62/65/64 27/70/64 49/66/64
f 35/71/65 63/72/65 39/73/65
f 37/57/66 63/72/66 56/74/66
f 90/75/67 31/63/67 49/76/67
f 90/75/68 27/77/68 85/78/68
f 55/79/69 47/80/69 38/58/69
f 55/79/70 52/81/70 64/82/70
f 91/83/71 28/84/71 50/85/71
f 91/83/72 32/67/72 86/60/72
f 104/86/73 54/87/73 102/88/73
f 104/86/74 41/89/74 65/90/74
f 74/91/75 36/92/75 55/79/75
f 74/91/76 38/58/76 72/93/76
f 101/94/77 66/95/77 51/96/77
f 108/97/78 66/95/78 105/98/78
f 70/99/79 56/74/79 75/100/79
f 71/101/80 56/74/80 35/71/80
f 106/102/81 46/103/81 108/97/81
f 102/88/82 67/104/82 106/102/82
f 72/93/83 57/55/83 76/105/83
f 76/105/84 37/57/84 70/99/84
f 77/106/85 68/107/85 39/108/85
f 79/109/86 68/107/86 84/110/86
f 68/107/87 36/111/87 58/112/87
f 39/108/88 58/112/88 35/113/88
f 67/104/89 70/99/89 46/103/89
f 54/87/90 76/105/90 67/104/90
f 51/96/91 75/100/91 71/101/91
f 46/103/92 75/100/92 66/95/92
f 65/90/93 72/93/93 54/87/93
f 41/89/94 74/91/94 65/90/94
f 58/112/95 69/114/95 73/43/95
f 35/113/96 73/43/96 71/40/96
f 92/115/97 79/109/97 84/110/97
f 85/116/98 84/110/98 77/106/98
f 64/82/99 78/117/99 47/80/99
f 52/81/100 83/118/100 64/82/100
f 39/73/101 82/119/101 77/120/101
f 53/56/102 82/119/102 63/72/102
f 61/59/103 80/121/103 53/56/103
f 47/80/104 81/122/104 61/59/104
f 40/123/105 85/116/105 27/124/105
f 40/123/106 87/125/106 92/115/106
f 83/118/107 86/60/107 78/117/107
f 83/118/108 87/126/108 91/83/108
f 82/119/109 85/78/109 77/120/109
f 80/121/110 90/75/110 82/119/110
f 81/122/111 88/64/111 80/121/111
f 78/117/112 89/62/112 81/122/112
f 112/127/113 100/128/113 116/129/113
f 116/129/114 94/130/114 110/131/114
f 110/131/115 99/132/115 115/133/115
f 111/134/116 99/132/116 95/135/116
f 109/136/117 98/137/117 114/138/117
f 112/127/118 98/137/118 96/139/118
f 101/140/119 97/141/119 95/142/119
f 103/143/120 93/144/120 97/141/120
f 59/41/121 107/145/121 103/143/121
f 51/42/122 103/143/122 101/140/122
f 96/139/123 106/102/123 100/128/123
f 100/128/124 108/97/124 94/130/124
f 94/130/125 105/98/125 99/132/125
f 95/135/126 105/98/126 101/94/126
f 98/137/127 107/146/127 104/86/127
f 96/139/128 104/86/128 102/88/128
f 34/147/129 114/138/129 112/127/129
f 30/148/130 114/138/130 44/149/130
f 29/150/131 115/133/131 111/134/131
f 33/54/132 115/133/132 43/151/132
f 45/53/133 110/131/133 33/54/133
f 34/147/134 116/129/134 45/53/134
f 95/142/135 113/45/135 111/48/135
f 97/141/136 109/152/136 113/45/136
f 71/40/137 73/43/137 59/41/137
f 73/43/138 69/114/138 41/44/138
f 113/45/139 109/152/139 30/46/139
f 111/48/140 113/45/140 42/47/140
f 29/49/141 42/47/141 60/50/141
f 42/47/142 30/46/142 44/52/142
f 44/52/143 34/147/143 45/53/143
f 60/50/144 45/53/144 33/54/144
f 57/55/145 61/59/145 53/56/145
f 38/58/146 47/80/146 61/59/146
f 86/60/147 32/67/147 48/61/147
f 89/62/148 48/61/148 31/63/148
f 31/63/149 48/61/149 62/65/149
f 32/67/150 50/153/150 62/65/150
f 62/65/151 50/153/151 28/68/151
f 62/65/152 40/69/152 27/70/152
f 35/71/153 56/74/153 63/72/153
f 37/57/154 53/56/154 63/72/154
f 90/75/155 88/64/155 31/63/155
f 90/75/156 49/76/156 27/77/156
f 55/79/157 64/82/157 47/80/157
f 55/79/158 36/92/158 52/81/158
f 91/83/159 87/126/159 28/84/159
f 91/83/160 50/85/160 32/67/160
f 104/86/161 65/90/161 54/87/161
f 104/86/162 107/146/162 41/89/162
f 74/91/163 69/154/163 36/92/163
f 74/91/164 55/79/164 38/58/164
f 101/94/165 105/98/165 66/95/165
f 108/97/166 46/103/166 66/95/166
f 70/99/167 37/57/167 56/74/167
f 71/101/168 75/100/168 56/74/168
f 106/102/169 67/104/169 46/103/169
f 102/88/170 54/87/170 67/104/170
f 72/93/171 38/58/171 57/55/171
f 76/105/172 57/55/172 37/57/172
f 77/106/173 84/110/173 68/107/173
f 79/109/174 52/155/174 68/107/174
f 68/107/175 52/155/175 36/111/175
f 39/108/176 68/107/176 58/112/176
f 67/104/177 76/105/177 70/99/177
f 54/87/178 72/93/178 76/105/178
f 51/96/179 66/95/179 75/100/179
f 46/103/180 70/99/180 75/100/180
f 65/90/181 74/91/181 72/93/181
f 41/89/182 69/154/182 74/91/182
f 58/112/183 36/111/183 69/114/183
f 35/113/184 58/112/184 73/43/184
f 92/115/185 87/125/185 79/109/185
f 85/116/186 92/115/186 84/110/186
f 64/82/187 83/118/187 78/117/187
f 52/81/188 79/156/188 83/118/188
f 39/73/189 63/72/189 82/119/189
f 53/56/190 80/121/190 82/119/190
f 61/59/191 81/122/191 80/121/191
f 47/80/192 78/117/192 81/122/192
f 40/123/193 92/115/193 85/116/193
f 40/123/194 28/157/194 87/125/194
f 83/118/195 91/83/195 86/60/195
f 83/118/196 79/156/196 87/126/196
f 82/119/197 90/75/197 85/78/197
f 80/121/198 88/64/198 90/75/198
f 81/122/199 89/62/199 88/64/199
f 78/117/200 86/60/200 89/62/200
f 112/127/201 96/139/201 100/128/201
f 116/129/202 100/128/202 94/130/202
f 110/131/203 94/130/203 99/132/203
f 111/134/204 115/133/204 99/132/204
f 109/136/205 93/158/205 98/137/205
f 112/127/206 114/138/206 98/137/206
f 101/140/207 103/143/207 97/141/207
f 103/143/208 107/145/208 93/144/208
f 59/41/209 41/44/209 107/145/209
f 51/42/210 59/41/210 103/143/210
f 96/139/211 102/88/211 106/102/211
f 100/128/212 106/102/212 108/97/212
f 94/130/213 108/97/213 105/98/213
f 95/135/214 99/132/214 105/98/214
f 98/137/215 93/158/215 107/146/215
f 96/139/216 98/137/216 104/86/216
f 34/147/217 44/149/217 114/138/217
f 30/148/218 109/136/218 114/138/218
f 29/150/219 43/151/219 115/133/219
f 33/54/220 110/131/220 115/133/220
f 45/53/221 116/129/221 110/131/221
f 34/147/222 112/127/222 116/129/222
f 95/142/223 97/141/223 113/45/223
f 97/141/224 93/144/224 109/152/224
